<?xml version="1.0" encoding="UTF-8"?>
<svg xmlns="http://www.w3.org/2000/svg" version="1.1" width="500" height="500" viewBox="0 0 500 500"><rect x="0" y="0" width="500" height="500" fill="#ffffff"/><g transform="scale(20)"><g transform="translate(0,0)"><path fill-rule="evenodd" d="M8 0L8 1L11 1L11 3L10 3L10 2L9 2L9 3L10 3L10 5L9 5L9 6L8 6L8 8L9 8L9 9L7 9L7 8L6 8L6 9L7 9L7 10L6 10L6 11L5 11L5 8L3 8L3 9L2 9L2 8L0 8L0 9L2 9L2 12L1 12L1 11L0 11L0 12L1 12L1 13L0 13L0 17L1 17L1 15L2 15L2 16L3 16L3 17L4 17L4 16L5 16L5 17L8 17L8 18L12 18L12 19L10 19L10 20L8 20L8 22L9 22L9 23L8 23L8 25L9 25L9 23L10 23L10 22L9 22L9 21L12 21L12 22L11 22L11 25L14 25L14 19L15 19L15 18L16 18L16 20L15 20L15 21L18 21L18 22L17 22L17 23L18 23L18 22L19 22L19 24L18 24L18 25L19 25L19 24L21 24L21 25L22 25L22 24L24 24L24 25L25 25L25 18L24 18L24 16L25 16L25 14L24 14L24 13L25 13L25 10L24 10L24 9L25 9L25 8L24 8L24 9L19 9L19 8L18 8L18 9L15 9L15 8L14 8L14 7L15 7L15 4L17 4L17 3L15 3L15 0L13 0L13 1L12 1L12 0ZM13 1L13 2L12 2L12 4L13 4L13 2L14 2L14 1ZM14 3L14 4L15 4L15 3ZM10 5L10 6L9 6L9 7L10 7L10 9L9 9L9 10L10 10L10 11L6 11L6 12L4 12L4 11L3 11L3 12L2 12L2 14L3 14L3 16L4 16L4 15L6 15L6 16L7 16L7 15L6 15L6 14L7 14L7 13L8 13L8 16L9 16L9 17L11 17L11 16L12 16L12 15L14 15L14 13L13 13L13 12L14 12L14 11L15 11L15 10L13 10L13 9L14 9L14 8L13 8L13 9L12 9L12 6L13 6L13 7L14 7L14 6L13 6L13 5L12 5L12 6L11 6L11 5ZM10 6L10 7L11 7L11 6ZM16 6L16 7L17 7L17 6ZM3 9L3 10L4 10L4 9ZM10 9L10 10L11 10L11 9ZM18 9L18 10L19 10L19 11L17 11L17 10L16 10L16 15L15 15L15 16L13 16L13 17L12 17L12 18L15 18L15 17L16 17L16 15L17 15L17 16L20 16L20 13L21 13L21 14L23 14L23 13L24 13L24 12L21 12L21 10L19 10L19 9ZM12 10L12 11L13 11L13 10ZM22 10L22 11L24 11L24 10ZM19 11L19 12L18 12L18 13L17 13L17 15L19 15L19 14L18 14L18 13L19 13L19 12L20 12L20 11ZM6 12L6 13L4 13L4 14L6 14L6 13L7 13L7 12ZM8 12L8 13L9 13L9 15L10 15L10 16L11 16L11 15L10 15L10 14L11 14L11 12ZM12 13L12 14L13 14L13 13ZM21 15L21 18L22 18L22 19L21 19L21 20L22 20L22 22L21 22L21 21L20 21L20 22L21 22L21 24L22 24L22 22L23 22L23 20L24 20L24 18L23 18L23 17L22 17L22 15ZM23 15L23 16L24 16L24 15ZM17 17L17 20L20 20L20 17ZM18 18L18 19L19 19L19 18ZM12 19L12 21L13 21L13 19ZM12 22L12 23L13 23L13 22ZM15 23L15 25L17 25L17 24L16 24L16 23ZM0 0L0 7L7 7L7 0ZM1 1L1 6L6 6L6 1ZM2 2L2 5L5 5L5 2ZM18 0L18 7L25 7L25 0ZM19 1L19 6L24 6L24 1ZM20 2L20 5L23 5L23 2ZM0 18L0 25L7 25L7 18ZM1 19L1 24L6 24L6 19ZM2 20L2 23L5 23L5 20Z" fill="#00803c"/></g></g></svg>
