<?xml version="1.0" encoding="UTF-8"?>
<svg xmlns="http://www.w3.org/2000/svg" version="1.1" width="500" height="500" viewBox="0 0 500 500"><rect x="0" y="0" width="500" height="500" fill="#ffffff"/><g transform="scale(17.241)"><g transform="translate(0,0)"><path fill-rule="evenodd" d="M8 0L8 1L9 1L9 2L8 2L8 5L9 5L9 4L11 4L11 5L10 5L10 10L8 10L8 9L9 9L9 8L8 8L8 9L7 9L7 8L6 8L6 9L7 9L7 10L5 10L5 12L4 12L4 13L3 13L3 15L1 15L1 17L2 17L2 18L3 18L3 19L2 19L2 20L1 20L1 21L2 21L2 20L4 20L4 19L5 19L5 20L6 20L6 21L8 21L8 22L9 22L9 25L8 25L8 29L10 29L10 28L11 28L11 29L12 29L12 28L14 28L14 27L15 27L15 26L19 26L19 27L18 27L18 29L19 29L19 28L20 28L20 29L22 29L22 26L19 26L19 25L18 25L18 24L20 24L20 25L24 25L24 26L25 26L25 25L26 25L26 26L27 26L27 25L28 25L28 27L27 27L27 29L28 29L28 27L29 27L29 23L28 23L28 22L29 22L29 21L27 21L27 18L28 18L28 15L29 15L29 13L27 13L27 12L26 12L26 11L28 11L28 12L29 12L29 11L28 11L28 10L29 10L29 8L28 8L28 10L26 10L26 11L25 11L25 13L27 13L27 14L24 14L24 12L23 12L23 13L22 13L22 12L20 12L20 11L24 11L24 10L25 10L25 9L27 9L27 8L24 8L24 10L23 10L23 9L22 9L22 8L21 8L21 6L20 6L20 5L21 5L21 4L20 4L20 3L21 3L21 2L20 2L20 3L19 3L19 2L18 2L18 3L17 3L17 4L15 4L15 3L16 3L16 2L15 2L15 3L14 3L14 2L13 2L13 0L12 0L12 1L11 1L11 0L10 0L10 1L9 1L9 0ZM14 0L14 1L15 1L15 0ZM16 0L16 1L17 1L17 0ZM18 0L18 1L21 1L21 0ZM11 2L11 4L12 4L12 3L13 3L13 2ZM18 3L18 4L17 4L17 5L15 5L15 4L13 4L13 5L12 5L12 6L11 6L11 8L12 8L12 6L13 6L13 9L14 9L14 11L15 11L15 12L14 12L14 13L13 13L13 14L12 14L12 16L11 16L11 19L10 19L10 20L9 20L9 19L8 19L8 17L9 17L9 18L10 18L10 17L9 17L9 16L8 16L8 14L7 14L7 13L6 13L6 14L5 14L5 13L4 13L4 15L3 15L3 18L4 18L4 16L7 16L7 17L6 17L6 18L7 18L7 19L6 19L6 20L9 20L9 21L10 21L10 22L11 22L11 23L10 23L10 25L9 25L9 26L10 26L10 25L11 25L11 23L14 23L14 22L15 22L15 23L16 23L16 21L17 21L17 20L16 20L16 19L17 19L17 17L18 17L18 18L19 18L19 20L18 20L18 21L20 21L20 19L21 19L21 20L22 20L22 18L24 18L24 19L23 19L23 20L26 20L26 19L25 19L25 18L26 18L26 17L27 17L27 15L24 15L24 14L23 14L23 15L22 15L22 14L20 14L20 15L19 15L19 13L20 13L20 12L18 12L18 11L17 11L17 10L18 10L18 9L17 9L17 10L16 10L16 8L17 8L17 7L18 7L18 8L20 8L20 6L19 6L19 3ZM8 6L8 7L9 7L9 6ZM14 6L14 7L15 7L15 6ZM16 6L16 7L17 7L17 6ZM18 6L18 7L19 7L19 6ZM0 8L0 9L2 9L2 10L0 10L0 11L2 11L2 10L3 10L3 11L4 11L4 10L3 10L3 9L4 9L4 8ZM11 9L11 10L12 10L12 9ZM20 9L20 10L19 10L19 11L20 11L20 10L21 10L21 9ZM7 10L7 11L6 11L6 12L7 12L7 11L8 11L8 13L9 13L9 11L8 11L8 10ZM11 11L11 13L10 13L10 14L9 14L9 15L11 15L11 13L12 13L12 12L13 12L13 11ZM0 12L0 13L1 13L1 12ZM17 12L17 13L15 13L15 14L17 14L17 15L14 15L14 14L13 14L13 15L14 15L14 17L15 17L15 18L13 18L13 21L15 21L15 19L16 19L16 17L17 17L17 15L18 15L18 12ZM6 14L6 15L7 15L7 14ZM21 15L21 16L22 16L22 15ZM23 15L23 17L25 17L25 16L24 16L24 15ZM12 16L12 17L13 17L13 16ZM15 16L15 17L16 17L16 16ZM18 16L18 17L19 17L19 16ZM0 18L0 19L1 19L1 18ZM11 19L11 20L10 20L10 21L11 21L11 20L12 20L12 19ZM21 21L21 24L24 24L24 21ZM17 22L17 24L18 24L18 22ZM22 22L22 23L23 23L23 22ZM26 22L26 24L28 24L28 23L27 23L27 22ZM12 24L12 26L11 26L11 28L12 28L12 26L13 26L13 27L14 27L14 26L15 26L15 24ZM13 25L13 26L14 26L14 25ZM9 27L9 28L10 28L10 27ZM16 27L16 28L15 28L15 29L16 29L16 28L17 28L17 27ZM23 28L23 29L24 29L24 28ZM25 28L25 29L26 29L26 28ZM0 0L0 7L7 7L7 0ZM1 1L1 6L6 6L6 1ZM2 2L2 5L5 5L5 2ZM22 0L22 7L29 7L29 0ZM23 1L23 6L28 6L28 1ZM24 2L24 5L27 5L27 2ZM0 22L0 29L7 29L7 22ZM1 23L1 28L6 28L6 23ZM2 24L2 27L5 27L5 24Z" fill="#00803c"/></g></g></svg>
