<?xml version="1.0" encoding="UTF-8"?>
<svg xmlns="http://www.w3.org/2000/svg" version="1.1" width="500" height="500" viewBox="0 0 500 500"><rect x="0" y="0" width="500" height="500" fill="#ffffff"/><g transform="scale(17.241)"><g transform="translate(0,0)"><path fill-rule="evenodd" d="M10 0L10 2L11 2L11 0ZM12 0L12 1L13 1L13 0ZM16 0L16 1L14 1L14 3L13 3L13 2L12 2L12 4L14 4L14 5L11 5L11 6L10 6L10 4L11 4L11 3L8 3L8 4L9 4L9 5L8 5L8 7L9 7L9 8L6 8L6 9L5 9L5 8L0 8L0 9L1 9L1 10L0 10L0 15L1 15L1 13L2 13L2 14L4 14L4 15L2 15L2 16L1 16L1 17L0 17L0 21L1 21L1 18L3 18L3 19L2 19L2 20L4 20L4 21L7 21L7 20L4 20L4 17L5 17L5 18L6 18L6 19L7 19L7 18L6 18L6 17L7 17L7 16L6 16L6 17L5 17L5 14L4 14L4 13L7 13L7 14L6 14L6 15L8 15L8 17L9 17L9 18L8 18L8 23L11 23L11 24L10 24L10 25L12 25L12 26L13 26L13 27L12 27L12 29L13 29L13 28L14 28L14 29L15 29L15 28L14 28L14 27L16 27L16 28L17 28L17 29L19 29L19 28L17 28L17 27L18 27L18 26L19 26L19 27L20 27L20 28L22 28L22 27L23 27L23 28L26 28L26 29L27 29L27 28L28 28L28 26L29 26L29 25L27 25L27 24L29 24L29 23L27 23L27 22L29 22L29 20L28 20L28 19L27 19L27 16L28 16L28 15L27 15L27 12L28 12L28 11L27 11L27 12L25 12L25 9L26 9L26 8L25 8L25 9L24 9L24 8L23 8L23 9L22 9L22 8L21 8L21 6L20 6L20 9L18 9L18 8L15 8L15 9L16 9L16 10L14 10L14 9L12 9L12 7L13 7L13 6L14 6L14 7L15 7L15 6L16 6L16 7L17 7L17 5L18 5L18 7L19 7L19 5L21 5L21 4L20 4L20 3L21 3L21 0L19 0L19 1L17 1L17 0ZM8 1L8 2L9 2L9 1ZM16 1L16 2L17 2L17 3L18 3L18 5L19 5L19 2L20 2L20 1L19 1L19 2L17 2L17 1ZM15 4L15 5L14 5L14 6L15 6L15 5L16 5L16 4ZM9 6L9 7L10 7L10 6ZM11 6L11 7L12 7L12 6ZM10 8L10 9L9 9L9 10L8 10L8 12L7 12L7 11L6 11L6 10L7 10L7 9L6 9L6 10L5 10L5 11L6 11L6 12L7 12L7 13L8 13L8 14L10 14L10 15L11 15L11 14L13 14L13 15L12 15L12 17L10 17L10 18L9 18L9 20L10 20L10 22L13 22L13 23L12 23L12 25L15 25L15 26L16 26L16 25L15 25L15 24L18 24L18 25L17 25L17 26L18 26L18 25L19 25L19 26L20 26L20 24L18 24L18 23L17 23L17 22L20 22L20 21L19 21L19 20L20 20L20 19L21 19L21 18L22 18L22 19L24 19L24 20L25 20L25 21L26 21L26 20L27 20L27 19L24 19L24 18L22 18L22 17L26 17L26 16L27 16L27 15L26 15L26 13L25 13L25 12L23 12L23 10L22 10L22 9L21 9L21 11L20 11L20 10L19 10L19 11L18 11L18 9L17 9L17 11L16 11L16 12L15 12L15 11L14 11L14 12L13 12L13 13L12 13L12 11L13 11L13 10L12 10L12 9L11 9L11 8ZM27 8L27 9L28 9L28 10L29 10L29 9L28 9L28 8ZM3 9L3 10L1 10L1 11L2 11L2 13L3 13L3 10L4 10L4 9ZM10 9L10 11L11 11L11 9ZM19 11L19 12L17 12L17 13L16 13L16 14L15 14L15 15L14 15L14 16L15 16L15 17L12 17L12 18L13 18L13 19L12 19L12 21L13 21L13 20L14 20L14 21L16 21L16 22L15 22L15 23L14 23L14 24L15 24L15 23L16 23L16 22L17 22L17 21L18 21L18 20L17 20L17 19L18 19L18 18L21 18L21 17L20 17L20 16L19 16L19 15L18 15L18 14L20 14L20 15L21 15L21 14L24 14L24 15L23 15L23 16L24 16L24 15L25 15L25 13L21 13L21 12L22 12L22 11L21 11L21 12L20 12L20 11ZM9 12L9 13L11 13L11 12ZM14 12L14 13L15 13L15 12ZM19 12L19 13L20 13L20 12ZM28 13L28 14L29 14L29 13ZM15 15L15 16L16 16L16 17L15 17L15 18L16 18L16 17L17 17L17 16L18 16L18 17L19 17L19 16L18 16L18 15L17 15L17 16L16 16L16 15ZM2 16L2 17L4 17L4 16ZM28 17L28 18L29 18L29 17ZM10 19L10 20L11 20L11 19ZM14 19L14 20L15 20L15 19ZM16 20L16 21L17 21L17 20ZM21 21L21 24L24 24L24 21ZM22 22L22 23L23 23L23 22ZM26 23L26 24L25 24L25 25L21 25L21 26L25 26L25 27L26 27L26 28L27 28L27 27L26 27L26 26L27 26L27 25L26 25L26 24L27 24L27 23ZM8 24L8 29L9 29L9 24ZM0 0L0 7L7 7L7 0ZM1 1L1 6L6 6L6 1ZM2 2L2 5L5 5L5 2ZM22 0L22 7L29 7L29 0ZM23 1L23 6L28 6L28 1ZM24 2L24 5L27 5L27 2ZM0 22L0 29L7 29L7 22ZM1 23L1 28L6 28L6 23ZM2 24L2 27L5 27L5 24Z" fill="#00803c"/></g></g></svg>
