<?xml version="1.0" encoding="UTF-8"?>
<svg xmlns="http://www.w3.org/2000/svg" version="1.1" width="500" height="500" viewBox="0 0 500 500"><rect x="0" y="0" width="500" height="500" fill="#ffffff"/><g transform="scale(17.241)"><g transform="translate(0,0)"><path fill-rule="evenodd" d="M11 0L11 1L9 1L9 2L11 2L11 1L13 1L13 0ZM14 0L14 1L15 1L15 0ZM17 0L17 1L18 1L18 3L17 3L17 4L16 4L16 7L15 7L15 6L14 6L14 7L15 7L15 8L13 8L13 9L12 9L12 7L13 7L13 5L11 5L11 6L10 6L10 8L9 8L9 9L8 9L8 8L5 8L5 9L3 9L3 10L1 10L1 9L2 9L2 8L0 8L0 13L1 13L1 14L2 14L2 15L1 15L1 17L0 17L0 21L1 21L1 19L2 19L2 18L3 18L3 20L2 20L2 21L4 21L4 19L7 19L7 20L5 20L5 21L7 21L7 20L8 20L8 24L9 24L9 21L10 21L10 22L11 22L11 24L10 24L10 25L9 25L9 26L10 26L10 27L11 27L11 24L12 24L12 26L13 26L13 27L12 27L12 28L13 28L13 29L14 29L14 28L13 28L13 27L15 27L15 29L18 29L18 28L17 28L17 26L19 26L19 25L20 25L20 27L19 27L19 28L20 28L20 27L21 27L21 25L23 25L23 26L22 26L22 28L23 28L23 26L24 26L24 27L26 27L26 28L24 28L24 29L27 29L27 27L28 27L28 28L29 28L29 27L28 27L28 26L29 26L29 25L28 25L28 26L27 26L27 27L26 27L26 26L24 26L24 25L25 25L25 23L27 23L27 22L26 22L26 21L29 21L29 20L26 20L26 21L25 21L25 19L22 19L22 20L19 20L19 19L21 19L21 18L20 18L20 17L22 17L22 18L23 18L23 17L22 17L22 16L24 16L24 15L22 15L22 14L23 14L23 10L22 10L22 12L21 12L21 15L20 15L20 17L19 17L19 18L18 18L18 20L17 20L17 21L18 21L18 23L20 23L20 24L19 24L19 25L17 25L17 22L16 22L16 21L15 21L15 19L16 19L16 18L17 18L17 17L18 17L18 16L17 16L17 17L15 17L15 16L16 16L16 14L17 14L17 15L18 15L18 14L20 14L20 12L19 12L19 13L18 13L18 14L17 14L17 13L16 13L16 11L18 11L18 10L21 10L21 8L20 8L20 9L18 9L18 8L19 8L19 5L20 5L20 4L21 4L21 1L20 1L20 2L19 2L19 1L18 1L18 0ZM12 2L12 4L14 4L14 5L15 5L15 4L14 4L14 3L15 3L15 2L14 2L14 3L13 3L13 2ZM8 3L8 5L10 5L10 4L9 4L9 3ZM18 3L18 4L17 4L17 5L19 5L19 3ZM8 6L8 7L9 7L9 6ZM11 6L11 7L12 7L12 6ZM17 6L17 7L16 7L16 10L17 10L17 8L18 8L18 6ZM20 6L20 7L21 7L21 6ZM10 8L10 10L9 10L9 11L10 11L10 14L13 14L13 15L12 15L12 17L11 17L11 15L9 15L9 16L8 16L8 17L6 17L6 18L8 18L8 17L9 17L9 20L10 20L10 21L11 21L11 22L13 22L13 21L12 21L12 19L13 19L13 20L14 20L14 19L15 19L15 17L14 17L14 18L12 18L12 17L13 17L13 16L15 16L15 11L14 11L14 10L15 10L15 9L13 9L13 10L12 10L12 9L11 9L11 8ZM24 8L24 12L25 12L25 9L26 9L26 10L28 10L28 9L26 9L26 8ZM6 9L6 10L7 10L7 11L6 11L6 12L7 12L7 13L4 13L4 15L6 15L6 16L7 16L7 15L8 15L8 14L9 14L9 12L7 12L7 11L8 11L8 9ZM10 10L10 11L11 11L11 10ZM12 11L12 12L11 12L11 13L13 13L13 14L14 14L14 13L13 13L13 11ZM2 12L2 13L3 13L3 12ZM28 12L28 13L26 13L26 17L24 17L24 18L28 18L28 19L29 19L29 17L27 17L27 14L29 14L29 12ZM24 13L24 14L25 14L25 13ZM6 14L6 15L7 15L7 14ZM2 15L2 16L3 16L3 17L4 17L4 18L5 18L5 17L4 17L4 16L3 16L3 15ZM21 15L21 16L22 16L22 15ZM28 15L28 16L29 16L29 15ZM9 16L9 17L10 17L10 19L12 19L12 18L11 18L11 17L10 17L10 16ZM1 17L1 18L2 18L2 17ZM18 20L18 21L19 21L19 20ZM21 21L21 24L24 24L24 21ZM22 22L22 23L23 23L23 22ZM12 23L12 24L13 24L13 25L14 25L14 26L15 26L15 25L16 25L16 26L17 26L17 25L16 25L16 24L15 24L15 23ZM14 24L14 25L15 25L15 24ZM8 27L8 29L9 29L9 27ZM10 28L10 29L11 29L11 28ZM0 0L0 7L7 7L7 0ZM1 1L1 6L6 6L6 1ZM2 2L2 5L5 5L5 2ZM22 0L22 7L29 7L29 0ZM23 1L23 6L28 6L28 1ZM24 2L24 5L27 5L27 2ZM0 22L0 29L7 29L7 22ZM1 23L1 28L6 28L6 23ZM2 24L2 27L5 27L5 24Z" fill="#00803c"/></g></g></svg>
