<?xml version="1.0" encoding="UTF-8"?>
<svg xmlns="http://www.w3.org/2000/svg" version="1.1" width="500" height="500" viewBox="0 0 500 500"><rect x="0" y="0" width="500" height="500" fill="#ffffff"/><g transform="scale(17.241)"><g transform="translate(0,0)"><path fill-rule="evenodd" d="M9 0L9 1L8 1L8 2L9 2L9 3L8 3L8 4L10 4L10 7L11 7L11 4L12 4L12 5L13 5L13 6L12 6L12 9L13 9L13 8L14 8L14 9L15 9L15 8L14 8L14 7L15 7L15 6L16 6L16 8L17 8L17 9L16 9L16 10L15 10L15 11L14 11L14 12L16 12L16 11L17 11L17 9L18 9L18 11L19 11L19 12L17 12L17 13L16 13L16 14L15 14L15 13L12 13L12 11L13 11L13 10L11 10L11 11L10 11L10 9L11 9L11 8L6 8L6 9L7 9L7 10L6 10L6 11L8 11L8 15L9 15L9 17L8 17L8 16L6 16L6 17L8 17L8 18L6 18L6 19L7 19L7 20L6 20L6 21L7 21L7 20L8 20L8 23L11 23L11 22L9 22L9 19L10 19L10 21L12 21L12 22L13 22L13 23L12 23L12 25L13 25L13 24L14 24L14 25L15 25L15 24L17 24L17 25L16 25L16 26L15 26L15 27L14 27L14 28L15 28L15 27L16 27L16 28L17 28L17 29L19 29L19 28L17 28L17 27L18 27L18 26L19 26L19 27L20 27L20 28L22 28L22 27L23 27L23 28L26 28L26 29L27 29L27 28L28 28L28 26L29 26L29 25L28 25L28 24L29 24L29 23L28 23L28 24L26 24L26 23L27 23L27 22L29 22L29 20L28 20L28 19L27 19L27 16L28 16L28 15L27 15L27 12L28 12L28 11L27 11L27 12L25 12L25 9L26 9L26 8L25 8L25 9L24 9L24 8L23 8L23 9L22 9L22 8L21 8L21 6L20 6L20 9L18 9L18 8L17 8L17 6L16 6L16 4L12 4L12 2L13 2L13 1L11 1L11 2L10 2L10 0ZM15 0L15 1L17 1L17 2L16 2L16 3L17 3L17 5L18 5L18 7L19 7L19 5L21 5L21 4L20 4L20 3L21 3L21 0L19 0L19 1L17 1L17 0ZM19 1L19 2L17 2L17 3L18 3L18 5L19 5L19 2L20 2L20 1ZM14 2L14 3L15 3L15 2ZM10 3L10 4L11 4L11 3ZM8 5L8 7L9 7L9 5ZM13 6L13 7L14 7L14 6ZM0 8L0 9L1 9L1 11L0 11L0 12L1 12L1 11L3 11L3 12L5 12L5 10L2 10L2 9L5 9L5 8ZM27 8L27 9L28 9L28 10L29 10L29 9L28 9L28 8ZM21 9L21 11L20 11L20 10L19 10L19 11L20 11L20 12L19 12L19 13L20 13L20 12L21 12L21 13L25 13L25 15L24 15L24 14L21 14L21 15L20 15L20 14L18 14L18 15L17 15L17 16L16 16L16 15L14 15L14 16L13 16L13 17L12 17L12 15L13 15L13 14L12 14L12 13L11 13L11 12L10 12L10 13L9 13L9 15L10 15L10 17L11 17L11 18L10 18L10 19L11 19L11 18L13 18L13 19L12 19L12 21L15 21L15 22L16 22L16 23L17 23L17 24L18 24L18 25L17 25L17 26L18 26L18 25L19 25L19 26L20 26L20 24L18 24L18 23L17 23L17 22L20 22L20 21L19 21L19 20L20 20L20 19L21 19L21 18L22 18L22 19L24 19L24 20L25 20L25 21L26 21L26 20L27 20L27 19L24 19L24 18L22 18L22 17L26 17L26 16L27 16L27 15L26 15L26 13L25 13L25 12L23 12L23 10L22 10L22 9ZM8 10L8 11L9 11L9 10ZM21 11L21 12L22 12L22 11ZM6 12L6 13L7 13L7 12ZM0 13L0 16L2 16L2 14L4 14L4 15L3 15L3 17L2 17L2 20L3 20L3 21L5 21L5 19L4 19L4 18L3 18L3 17L4 17L4 16L5 16L5 15L7 15L7 14L4 14L4 13ZM10 13L10 14L11 14L11 13ZM28 13L28 14L29 14L29 13ZM18 15L18 16L17 16L17 17L16 17L16 16L14 16L14 17L16 17L16 18L15 18L15 19L14 19L14 20L15 20L15 19L16 19L16 20L17 20L17 21L16 21L16 22L17 22L17 21L18 21L18 20L17 20L17 19L18 19L18 18L21 18L21 17L20 17L20 16L19 16L19 15ZM23 15L23 16L24 16L24 15ZM18 16L18 17L19 17L19 16ZM0 17L0 21L1 21L1 17ZM28 17L28 18L29 18L29 17ZM3 19L3 20L4 20L4 19ZM21 21L21 24L24 24L24 21ZM22 22L22 23L23 23L23 22ZM14 23L14 24L15 24L15 23ZM8 24L8 29L9 29L9 28L11 28L11 29L12 29L12 27L13 27L13 26L11 26L11 27L9 27L9 26L10 26L10 24ZM25 24L25 25L21 25L21 26L25 26L25 27L26 27L26 28L27 28L27 27L26 27L26 26L27 26L27 25L26 25L26 24ZM0 0L0 7L7 7L7 0ZM1 1L1 6L6 6L6 1ZM2 2L2 5L5 5L5 2ZM22 0L22 7L29 7L29 0ZM23 1L23 6L28 6L28 1ZM24 2L24 5L27 5L27 2ZM0 22L0 29L7 29L7 22ZM1 23L1 28L6 28L6 23ZM2 24L2 27L5 27L5 24Z" fill="#00803c"/></g></g></svg>
