<?xml version="1.0" encoding="UTF-8"?>
<svg xmlns="http://www.w3.org/2000/svg" version="1.1" width="500" height="500" viewBox="0 0 500 500"><rect x="0" y="0" width="500" height="500" fill="#ffffff"/><g transform="scale(17.241)"><g transform="translate(0,0)"><path fill-rule="evenodd" d="M9 0L9 1L8 1L8 2L9 2L9 3L8 3L8 4L10 4L10 7L11 7L11 4L12 4L12 5L13 5L13 6L12 6L12 9L13 9L13 8L14 8L14 9L16 9L16 10L15 10L15 11L14 11L14 12L16 12L16 11L18 11L18 10L20 10L20 9L21 9L21 10L22 10L22 11L21 11L21 12L20 12L20 13L18 13L18 12L17 12L17 13L16 13L16 14L15 14L15 13L12 13L12 11L13 11L13 10L11 10L11 11L10 11L10 9L11 9L11 8L6 8L6 9L5 9L5 8L0 8L0 11L1 11L1 12L0 12L0 13L1 13L1 14L2 14L2 16L0 16L0 21L1 21L1 18L2 18L2 19L4 19L4 18L2 18L2 17L4 17L4 16L5 16L5 17L7 17L7 16L6 16L6 15L7 15L7 14L8 14L8 15L9 15L9 16L8 16L8 19L9 19L9 21L8 21L8 20L6 20L6 21L8 21L8 23L9 23L9 22L11 22L11 21L12 21L12 22L13 22L13 23L12 23L12 25L13 25L13 24L14 24L14 25L15 25L15 24L14 24L14 23L16 23L16 24L17 24L17 26L15 26L15 27L14 27L14 28L15 28L15 29L18 29L18 28L15 28L15 27L17 27L17 26L19 26L19 25L18 25L18 24L17 24L17 21L18 21L18 23L20 23L20 27L19 27L19 28L22 28L22 27L23 27L23 26L24 26L24 27L26 27L26 26L24 26L24 25L27 25L27 28L24 28L24 29L27 29L27 28L28 28L28 26L29 26L29 25L27 25L27 24L25 24L25 23L27 23L27 22L29 22L29 20L28 20L28 19L27 19L27 16L28 16L28 15L27 15L27 12L28 12L28 11L27 11L27 12L25 12L25 9L26 9L26 8L25 8L25 9L24 9L24 8L23 8L23 9L22 9L22 8L20 8L20 9L18 9L18 8L19 8L19 5L20 5L20 3L21 3L21 0L19 0L19 1L18 1L18 3L17 3L17 1L15 1L15 0L14 0L14 1L15 1L15 2L14 2L14 3L15 3L15 2L16 2L16 3L17 3L17 4L18 4L18 3L19 3L19 5L17 5L17 6L16 6L16 5L14 5L14 4L12 4L12 2L13 2L13 1L11 1L11 2L10 2L10 0ZM19 1L19 2L20 2L20 1ZM10 3L10 4L11 4L11 3ZM8 5L8 7L9 7L9 5ZM13 6L13 7L14 7L14 8L15 8L15 7L16 7L16 6L15 6L15 7L14 7L14 6ZM17 6L17 8L18 8L18 6ZM20 6L20 7L21 7L21 6ZM27 8L27 9L28 9L28 10L29 10L29 9L28 9L28 8ZM1 9L1 11L3 11L3 9ZM4 9L4 12L1 12L1 13L2 13L2 14L3 14L3 16L4 16L4 15L5 15L5 14L3 14L3 13L6 13L6 14L7 14L7 13L8 13L8 14L9 14L9 15L10 15L10 13L11 13L11 18L13 18L13 19L12 19L12 21L15 21L15 22L16 22L16 21L17 21L17 20L18 20L18 21L19 21L19 20L21 20L21 19L22 19L22 18L21 18L21 17L20 17L20 16L21 16L21 14L22 14L22 17L23 17L23 18L24 18L24 19L25 19L25 21L26 21L26 20L27 20L27 19L25 19L25 18L24 18L24 17L26 17L26 16L27 16L27 15L26 15L26 13L25 13L25 12L24 12L24 9L23 9L23 12L22 12L22 13L20 13L20 14L18 14L18 13L17 13L17 14L16 14L16 15L17 15L17 16L16 16L16 17L14 17L14 16L15 16L15 15L14 15L14 16L13 16L13 17L12 17L12 15L13 15L13 14L12 14L12 13L11 13L11 12L10 12L10 13L8 13L8 12L9 12L9 11L8 11L8 10L9 10L9 9L6 9L6 10L5 10L5 9ZM6 10L6 11L7 11L7 10ZM6 12L6 13L7 13L7 12ZM23 12L23 13L22 13L22 14L23 14L23 13L24 13L24 14L25 14L25 13L24 13L24 12ZM28 13L28 14L29 14L29 13ZM17 14L17 15L18 15L18 14ZM23 15L23 16L24 16L24 15ZM17 16L17 17L16 17L16 18L15 18L15 19L14 19L14 20L15 20L15 21L16 21L16 20L17 20L17 19L18 19L18 20L19 20L19 18L20 18L20 17L19 17L19 18L17 18L17 17L18 17L18 16ZM9 17L9 19L10 19L10 21L11 21L11 19L10 19L10 17ZM28 17L28 18L29 18L29 17ZM5 18L5 19L7 19L7 18ZM2 20L2 21L5 21L5 20ZM21 21L21 24L24 24L24 21ZM22 22L22 23L23 23L23 22ZM10 23L10 24L8 24L8 29L10 29L10 28L11 28L11 29L12 29L12 27L13 27L13 26L10 26L10 25L11 25L11 23ZM22 25L22 26L21 26L21 27L22 27L22 26L23 26L23 25ZM9 26L9 27L10 27L10 26ZM0 0L0 7L7 7L7 0ZM1 1L1 6L6 6L6 1ZM2 2L2 5L5 5L5 2ZM22 0L22 7L29 7L29 0ZM23 1L23 6L28 6L28 1ZM24 2L24 5L27 5L27 2ZM0 22L0 29L7 29L7 22ZM1 23L1 28L6 28L6 23ZM2 24L2 27L5 27L5 24Z" fill="#00803c"/></g></g></svg>
