<?xml version="1.0" encoding="UTF-8"?>
<svg xmlns="http://www.w3.org/2000/svg" version="1.1" width="500" height="500" viewBox="0 0 500 500"><rect x="0" y="0" width="500" height="500" fill="#ffffff"/><g transform="scale(20)"><g transform="translate(0,0)"><path fill-rule="evenodd" d="M8 0L8 1L9 1L9 2L10 2L10 3L12 3L12 4L13 4L13 5L10 5L10 4L9 4L9 5L10 5L10 8L9 8L9 6L8 6L8 8L9 8L9 9L7 9L7 8L6 8L6 9L7 9L7 10L5 10L5 8L3 8L3 9L4 9L4 11L2 11L2 10L1 10L1 13L0 13L0 17L1 17L1 15L3 15L3 14L4 14L4 13L5 13L5 15L4 15L4 16L5 16L5 15L7 15L7 16L6 16L6 17L7 17L7 16L8 16L8 18L9 18L9 17L10 17L10 16L12 16L12 18L11 18L11 19L12 19L12 21L11 21L11 20L10 20L10 21L11 21L11 24L13 24L13 23L14 23L14 24L16 24L16 25L17 25L17 24L16 24L16 23L15 23L15 22L13 22L13 23L12 23L12 21L13 21L13 20L14 20L14 21L16 21L16 22L17 22L17 23L18 23L18 25L19 25L19 24L21 24L21 25L22 25L22 24L24 24L24 25L25 25L25 21L24 21L24 20L25 20L25 18L24 18L24 16L25 16L25 14L24 14L24 13L25 13L25 10L24 10L24 9L25 9L25 8L24 8L24 9L19 9L19 8L18 8L18 9L19 9L19 11L16 11L16 9L17 9L17 8L14 8L14 7L15 7L15 6L14 6L14 7L13 7L13 5L15 5L15 4L17 4L17 3L15 3L15 4L14 4L14 1L15 1L15 0L14 0L14 1L13 1L13 0L10 0L10 1L9 1L9 0ZM11 1L11 2L12 2L12 3L13 3L13 1ZM11 6L11 7L12 7L12 6ZM16 6L16 7L17 7L17 6ZM0 8L0 9L2 9L2 8ZM11 8L11 9L10 9L10 10L9 10L9 11L10 11L10 10L11 10L11 9L12 9L12 11L11 11L11 12L10 12L10 13L9 13L9 12L8 12L8 13L6 13L6 14L9 14L9 16L10 16L10 15L12 15L12 16L14 16L14 18L12 18L12 19L14 19L14 20L15 20L15 19L16 19L16 17L15 17L15 16L18 16L18 15L19 15L19 16L20 16L20 15L19 15L19 14L20 14L20 13L21 13L21 14L23 14L23 13L24 13L24 12L20 12L20 11L19 11L19 12L20 12L20 13L18 13L18 12L16 12L16 13L17 13L17 14L16 14L16 15L15 15L15 16L14 16L14 15L12 15L12 14L13 14L13 13L14 13L14 14L15 14L15 12L14 12L14 11L13 11L13 10L15 10L15 9L14 9L14 8ZM7 10L7 11L5 11L5 12L7 12L7 11L8 11L8 10ZM22 10L22 11L24 11L24 10ZM3 12L3 13L4 13L4 12ZM12 12L12 13L11 13L11 14L12 14L12 13L13 13L13 12ZM1 13L1 14L2 14L2 13ZM17 14L17 15L18 15L18 14ZM21 15L21 18L22 18L22 19L21 19L21 20L22 20L22 22L21 22L21 21L19 21L19 22L18 22L18 23L19 23L19 22L21 22L21 24L22 24L22 22L23 22L23 19L24 19L24 18L23 18L23 17L22 17L22 15ZM23 15L23 16L24 16L24 15ZM2 16L2 17L3 17L3 16ZM17 17L17 20L20 20L20 17ZM18 18L18 19L19 19L19 18ZM8 20L8 22L9 22L9 23L8 23L8 25L10 25L10 22L9 22L9 20ZM0 0L0 7L7 7L7 0ZM1 1L1 6L6 6L6 1ZM2 2L2 5L5 5L5 2ZM18 0L18 7L25 7L25 0ZM19 1L19 6L24 6L24 1ZM20 2L20 5L23 5L23 2ZM0 18L0 25L7 25L7 18ZM1 19L1 24L6 24L6 19ZM2 20L2 23L5 23L5 20Z" fill="#00803c"/></g></g></svg>
