<?xml version="1.0" encoding="UTF-8"?>
<svg xmlns="http://www.w3.org/2000/svg" version="1.1" width="500" height="500" viewBox="0 0 500 500"><rect x="0" y="0" width="500" height="500" fill="#ffffff"/><g transform="scale(17.241)"><g transform="translate(0,0)"><path fill-rule="evenodd" d="M9 0L9 1L8 1L8 2L9 2L9 3L8 3L8 4L10 4L10 7L11 7L11 4L12 4L12 7L13 7L13 6L14 6L14 8L13 8L13 10L12 10L12 9L11 9L11 8L6 8L6 9L8 9L8 10L6 10L6 11L5 11L5 13L2 13L2 12L3 12L3 9L4 9L4 10L5 10L5 8L0 8L0 10L2 10L2 12L1 12L1 11L0 11L0 12L1 12L1 13L2 13L2 14L0 14L0 15L4 15L4 16L3 16L3 17L5 17L5 15L7 15L7 14L8 14L8 13L7 13L7 12L8 12L8 10L9 10L9 15L10 15L10 14L12 14L12 13L13 13L13 14L14 14L14 16L12 16L12 17L11 17L11 16L10 16L10 17L8 17L8 16L6 16L6 17L7 17L7 18L5 18L5 20L4 20L4 18L2 18L2 17L0 17L0 21L1 21L1 18L2 18L2 21L3 21L3 20L4 20L4 21L8 21L8 23L9 23L9 24L8 24L8 29L11 29L11 28L12 28L12 29L15 29L15 27L16 27L16 28L17 28L17 29L19 29L19 28L17 28L17 27L18 27L18 26L19 26L19 27L20 27L20 28L22 28L22 27L23 27L23 28L26 28L26 29L27 29L27 28L28 28L28 26L29 26L29 25L28 25L28 24L26 24L26 23L27 23L27 22L29 22L29 20L28 20L28 19L27 19L27 16L28 16L28 15L27 15L27 12L28 12L28 11L27 11L27 12L25 12L25 9L26 9L26 8L25 8L25 9L24 9L24 8L23 8L23 9L22 9L22 8L21 8L21 6L20 6L20 9L18 9L18 8L15 8L15 6L16 6L16 7L17 7L17 6L16 6L16 5L18 5L18 7L19 7L19 5L21 5L21 4L20 4L20 3L21 3L21 0L19 0L19 1L17 1L17 0L16 0L16 1L14 1L14 0L13 0L13 1L11 1L11 2L10 2L10 0ZM13 1L13 2L12 2L12 3L14 3L14 1ZM19 1L19 2L16 2L16 4L15 4L15 5L14 5L14 4L13 4L13 5L14 5L14 6L15 6L15 5L16 5L16 4L17 4L17 3L18 3L18 5L19 5L19 2L20 2L20 1ZM10 3L10 4L11 4L11 3ZM8 5L8 7L9 7L9 5ZM14 8L14 10L16 10L16 9L15 9L15 8ZM27 8L27 9L28 9L28 10L29 10L29 9L28 9L28 8ZM10 9L10 11L12 11L12 12L14 12L14 11L12 11L12 10L11 10L11 9ZM17 9L17 12L16 12L16 11L15 11L15 12L16 12L16 13L14 13L14 14L16 14L16 13L17 13L17 12L19 12L19 13L20 13L20 12L21 12L21 13L25 13L25 15L24 15L24 14L21 14L21 15L20 15L20 14L18 14L18 15L17 15L17 16L16 16L16 15L15 15L15 17L12 17L12 18L11 18L11 17L10 17L10 18L9 18L9 19L8 19L8 20L9 20L9 19L10 19L10 22L9 22L9 23L10 23L10 22L11 22L11 25L12 25L12 26L9 26L9 27L10 27L10 28L11 28L11 27L12 27L12 28L14 28L14 27L15 27L15 26L16 26L16 25L12 25L12 24L15 24L15 23L13 23L13 21L12 21L12 22L11 22L11 20L14 20L14 19L15 19L15 20L18 20L18 21L17 21L17 22L16 22L16 21L14 21L14 22L16 22L16 24L18 24L18 25L17 25L17 26L18 26L18 25L19 25L19 26L20 26L20 24L18 24L18 23L17 23L17 22L20 22L20 21L19 21L19 20L20 20L20 19L21 19L21 18L22 18L22 19L24 19L24 20L25 20L25 21L26 21L26 20L27 20L27 19L24 19L24 18L22 18L22 17L26 17L26 16L27 16L27 15L26 15L26 13L25 13L25 12L23 12L23 10L22 10L22 9L21 9L21 11L20 11L20 10L19 10L19 11L18 11L18 9ZM6 11L6 12L7 12L7 11ZM19 11L19 12L20 12L20 11ZM21 11L21 12L22 12L22 11ZM10 12L10 13L11 13L11 12ZM6 13L6 14L7 14L7 13ZM28 13L28 14L29 14L29 13ZM18 15L18 16L17 16L17 17L16 17L16 18L15 18L15 19L16 19L16 18L17 18L17 19L18 19L18 18L21 18L21 17L20 17L20 16L19 16L19 15ZM23 15L23 16L24 16L24 15ZM18 16L18 17L19 17L19 16ZM28 17L28 18L29 18L29 17ZM6 19L6 20L7 20L7 19ZM21 21L21 24L24 24L24 21ZM22 22L22 23L23 23L23 22ZM9 24L9 25L10 25L10 24ZM25 24L25 25L21 25L21 26L25 26L25 27L26 27L26 28L27 28L27 27L26 27L26 26L28 26L28 25L26 25L26 24ZM0 0L0 7L7 7L7 0ZM1 1L1 6L6 6L6 1ZM2 2L2 5L5 5L5 2ZM22 0L22 7L29 7L29 0ZM23 1L23 6L28 6L28 1ZM24 2L24 5L27 5L27 2ZM0 22L0 29L7 29L7 22ZM1 23L1 28L6 28L6 23ZM2 24L2 27L5 27L5 24Z" fill="#00803c"/></g></g></svg>
