<?xml version="1.0" encoding="UTF-8"?>
<svg xmlns="http://www.w3.org/2000/svg" version="1.1" width="500" height="500" viewBox="0 0 500 500"><rect x="0" y="0" width="500" height="500" fill="#ffffff"/><g transform="scale(17.241)"><g transform="translate(0,0)"><path fill-rule="evenodd" d="M8 0L8 1L10 1L10 0ZM13 0L13 1L14 1L14 0ZM16 0L16 3L15 3L15 2L11 2L11 4L10 4L10 3L9 3L9 2L8 2L8 5L9 5L9 6L8 6L8 7L9 7L9 8L8 8L8 9L7 9L7 8L6 8L6 9L7 9L7 10L4 10L4 8L0 8L0 12L1 12L1 13L2 13L2 15L0 15L0 16L1 16L1 17L2 17L2 18L3 18L3 19L2 19L2 20L1 20L1 21L7 21L7 20L6 20L6 19L8 19L8 20L10 20L10 21L8 21L8 22L10 22L10 25L11 25L11 23L13 23L13 25L15 25L15 26L12 26L12 27L11 27L11 28L10 28L10 29L11 29L11 28L12 28L12 27L15 27L15 26L17 26L17 27L16 27L16 28L13 28L13 29L16 29L16 28L17 28L17 27L19 27L19 26L18 26L18 24L17 24L17 23L16 23L16 24L15 24L15 22L14 22L14 21L15 21L15 20L16 20L16 16L17 16L17 15L18 15L18 17L17 17L17 21L16 21L16 22L17 22L17 21L19 21L19 19L18 19L18 17L20 17L20 18L21 18L21 19L22 19L22 20L20 20L20 22L19 22L19 23L20 23L20 25L21 25L21 26L20 26L20 29L22 29L22 27L21 27L21 26L22 26L22 25L23 25L23 29L25 29L25 28L26 28L26 27L27 27L27 29L28 29L28 27L29 27L29 23L28 23L28 22L29 22L29 21L27 21L27 18L28 18L28 15L29 15L29 13L27 13L27 12L26 12L26 11L28 11L28 12L29 12L29 11L28 11L28 10L29 10L29 8L28 8L28 10L26 10L26 11L25 11L25 13L27 13L27 14L25 14L25 15L27 15L27 17L26 17L26 18L24 18L24 17L25 17L25 16L24 16L24 15L23 15L23 13L22 13L22 14L20 14L20 13L21 13L21 12L20 12L20 13L19 13L19 11L18 11L18 10L21 10L21 11L22 11L22 12L24 12L24 11L22 11L22 10L25 10L25 9L27 9L27 8L24 8L24 9L22 9L22 8L19 8L19 6L20 6L20 7L21 7L21 6L20 6L20 3L21 3L21 2L20 2L20 3L19 3L19 2L18 2L18 3L17 3L17 0ZM19 0L19 1L21 1L21 0ZM12 3L12 5L10 5L10 6L9 6L9 7L10 7L10 8L9 8L9 9L8 9L8 10L7 10L7 11L5 11L5 12L3 12L3 11L4 11L4 10L2 10L2 9L1 9L1 11L2 11L2 13L5 13L5 12L7 12L7 13L6 13L6 14L4 14L4 15L3 15L3 16L2 16L2 17L4 17L4 20L5 20L5 19L6 19L6 18L8 18L8 17L10 17L10 18L9 18L9 19L10 19L10 20L12 20L12 21L10 21L10 22L12 22L12 21L14 21L14 18L15 18L15 16L16 16L16 15L17 15L17 14L19 14L19 13L17 13L17 12L18 12L18 11L16 11L16 9L17 9L17 10L18 10L18 9L17 9L17 7L18 7L18 6L19 6L19 5L18 5L18 4L19 4L19 3L18 3L18 4L17 4L17 3L16 3L16 4L17 4L17 7L16 7L16 5L15 5L15 4L13 4L13 3ZM12 5L12 7L11 7L11 6L10 6L10 7L11 7L11 8L12 8L12 7L13 7L13 5ZM14 6L14 7L15 7L15 8L16 8L16 7L15 7L15 6ZM9 9L9 10L10 10L10 9ZM13 9L13 11L11 11L11 13L10 13L10 12L9 12L9 11L7 11L7 12L9 12L9 13L10 13L10 14L8 14L8 15L10 15L10 14L12 14L12 16L10 16L10 17L12 17L12 18L10 18L10 19L12 19L12 20L13 20L13 18L14 18L14 16L15 16L15 14L17 14L17 13L16 13L16 11L14 11L14 9ZM21 9L21 10L22 10L22 9ZM12 12L12 14L14 14L14 13L13 13L13 12ZM6 14L6 15L5 15L5 16L6 16L6 17L8 17L8 16L6 16L6 15L7 15L7 14ZM13 15L13 16L12 16L12 17L13 17L13 16L14 16L14 15ZM19 15L19 16L22 16L22 19L23 19L23 20L24 20L24 18L23 18L23 15ZM0 18L0 19L1 19L1 18ZM25 19L25 20L26 20L26 19ZM21 21L21 24L24 24L24 21ZM13 22L13 23L14 23L14 22ZM22 22L22 23L23 23L23 22ZM26 22L26 23L25 23L25 26L24 26L24 27L25 27L25 26L26 26L26 24L27 24L27 27L28 27L28 24L27 24L27 22ZM8 25L8 29L9 29L9 27L10 27L10 26L9 26L9 25ZM0 0L0 7L7 7L7 0ZM1 1L1 6L6 6L6 1ZM2 2L2 5L5 5L5 2ZM22 0L22 7L29 7L29 0ZM23 1L23 6L28 6L28 1ZM24 2L24 5L27 5L27 2ZM0 22L0 29L7 29L7 22ZM1 23L1 28L6 28L6 23ZM2 24L2 27L5 27L5 24Z" fill="#00803c"/></g></g></svg>
