<?xml version="1.0" encoding="UTF-8"?>
<svg xmlns="http://www.w3.org/2000/svg" version="1.1" width="500" height="500" viewBox="0 0 500 500"><rect x="0" y="0" width="500" height="500" fill="#ffffff"/><g transform="scale(17.241)"><g transform="translate(0,0)"><path fill-rule="evenodd" d="M9 0L9 1L8 1L8 3L9 3L9 4L8 4L8 8L6 8L6 9L7 9L7 10L6 10L6 11L7 11L7 12L5 12L5 11L3 11L3 10L5 10L5 9L4 9L4 8L3 8L3 10L2 10L2 11L0 11L0 12L2 12L2 11L3 11L3 13L4 13L4 16L3 16L3 15L2 15L2 14L1 14L1 13L0 13L0 17L1 17L1 15L2 15L2 16L3 16L3 17L2 17L2 21L4 21L4 20L3 20L3 17L4 17L4 16L5 16L5 18L4 18L4 19L5 19L5 18L6 18L6 19L7 19L7 20L5 20L5 21L7 21L7 20L10 20L10 19L11 19L11 21L10 21L10 22L9 22L9 21L8 21L8 23L10 23L10 22L11 22L11 24L10 24L10 25L11 25L11 26L10 26L10 27L11 27L11 28L9 28L9 27L8 27L8 29L11 29L11 28L12 28L12 29L14 29L14 28L12 28L12 24L14 24L14 25L13 25L13 27L15 27L15 24L14 24L14 23L15 23L15 22L14 22L14 21L16 21L16 22L18 22L18 23L19 23L19 24L20 24L20 28L19 28L19 29L22 29L22 26L23 26L23 28L24 28L24 29L25 29L25 28L26 28L26 26L25 26L25 25L26 25L26 24L28 24L28 25L27 25L27 26L28 26L28 27L27 27L27 29L28 29L28 27L29 27L29 26L28 26L28 25L29 25L29 23L28 23L28 22L29 22L29 21L27 21L27 20L29 20L29 17L28 17L28 15L29 15L29 14L27 14L27 13L29 13L29 12L28 12L28 10L29 10L29 9L28 9L28 8L26 8L26 9L25 9L25 8L22 8L22 9L21 9L21 8L20 8L20 9L21 9L21 10L19 10L19 11L18 11L18 12L17 12L17 10L18 10L18 9L17 9L17 8L19 8L19 6L20 6L20 7L21 7L21 4L20 4L20 5L19 5L19 6L18 6L18 5L17 5L17 4L16 4L16 3L18 3L18 4L19 4L19 3L21 3L21 1L20 1L20 0L19 0L19 1L17 1L17 0L16 0L16 1L14 1L14 0L12 0L12 1L11 1L11 2L9 2L9 1L10 1L10 0ZM16 1L16 2L14 2L14 3L16 3L16 2L17 2L17 1ZM19 1L19 2L18 2L18 3L19 3L19 2L20 2L20 1ZM12 3L12 4L9 4L9 5L10 5L10 6L9 6L9 7L10 7L10 8L8 8L8 10L7 10L7 11L9 11L9 12L8 12L8 13L5 13L5 14L7 14L7 15L6 15L6 16L7 16L7 15L9 15L9 16L12 16L12 17L10 17L10 18L11 18L11 19L12 19L12 20L13 20L13 21L14 21L14 20L15 20L15 19L17 19L17 18L16 18L16 17L17 17L17 16L16 16L16 17L13 17L13 16L12 16L12 14L10 14L10 13L12 13L12 12L13 12L13 15L16 15L16 14L17 14L17 15L18 15L18 16L19 16L19 15L20 15L20 17L18 17L18 19L19 19L19 20L17 20L17 21L19 21L19 23L20 23L20 21L19 21L19 20L21 20L21 19L20 19L20 17L23 17L23 18L22 18L22 20L25 20L25 23L27 23L27 22L26 22L26 20L27 20L27 18L28 18L28 17L27 17L27 15L26 15L26 13L27 13L27 12L26 12L26 13L25 13L25 11L24 11L24 10L25 10L25 9L24 9L24 10L23 10L23 12L24 12L24 15L22 15L22 14L23 14L23 13L22 13L22 12L18 12L18 13L20 13L20 14L19 14L19 15L18 15L18 14L17 14L17 13L16 13L16 12L14 12L14 11L16 11L16 10L17 10L17 9L16 9L16 10L14 10L14 9L15 9L15 8L17 8L17 7L18 7L18 6L17 6L17 5L16 5L16 4L15 4L15 8L14 8L14 6L13 6L13 3ZM11 5L11 6L10 6L10 7L11 7L11 6L12 6L12 8L13 8L13 6L12 6L12 5ZM16 6L16 7L17 7L17 6ZM0 8L0 10L1 10L1 9L2 9L2 8ZM10 8L10 10L9 10L9 11L11 11L11 10L12 10L12 9L11 9L11 8ZM26 9L26 10L28 10L28 9ZM8 13L8 14L9 14L9 13ZM21 15L21 16L22 16L22 15ZM24 15L24 16L25 16L25 17L26 17L26 15ZM6 17L6 18L8 18L8 17ZM0 18L0 19L1 19L1 18ZM13 18L13 20L14 20L14 18ZM23 18L23 19L24 19L24 18ZM25 18L25 19L26 19L26 18ZM0 20L0 21L1 21L1 20ZM21 21L21 24L24 24L24 21ZM22 22L22 23L23 23L23 22ZM16 23L16 25L17 25L17 26L18 26L18 27L16 27L16 28L15 28L15 29L16 29L16 28L17 28L17 29L18 29L18 27L19 27L19 25L18 25L18 24L17 24L17 23ZM8 25L8 26L9 26L9 25ZM23 25L23 26L24 26L24 25ZM0 0L0 7L7 7L7 0ZM1 1L1 6L6 6L6 1ZM2 2L2 5L5 5L5 2ZM22 0L22 7L29 7L29 0ZM23 1L23 6L28 6L28 1ZM24 2L24 5L27 5L27 2ZM0 22L0 29L7 29L7 22ZM1 23L1 28L6 28L6 23ZM2 24L2 27L5 27L5 24Z" fill="#00803c"/></g></g></svg>
