<?xml version="1.0" encoding="UTF-8"?>
<svg xmlns="http://www.w3.org/2000/svg" version="1.1" width="500" height="500" viewBox="0 0 500 500"><rect x="0" y="0" width="500" height="500" fill="#ffffff"/><g transform="scale(17.241)"><g transform="translate(0,0)"><path fill-rule="evenodd" d="M10 0L10 1L9 1L9 2L8 2L8 3L9 3L9 5L10 5L10 7L11 7L11 8L12 8L12 9L11 9L11 10L10 10L10 9L9 9L9 6L8 6L8 8L4 8L4 9L3 9L3 8L0 8L0 9L1 9L1 10L0 10L0 12L1 12L1 10L2 10L2 9L3 9L3 12L2 12L2 13L1 13L1 14L0 14L0 15L2 15L2 14L3 14L3 16L0 16L0 17L3 17L3 18L2 18L2 19L1 19L1 18L0 18L0 19L1 19L1 20L0 20L0 21L1 21L1 20L2 20L2 21L5 21L5 19L7 19L7 20L6 20L6 21L8 21L8 25L9 25L9 26L8 26L8 29L12 29L12 28L14 28L14 29L15 29L15 26L14 26L14 25L13 25L13 24L12 24L12 23L9 23L9 21L8 21L8 20L9 20L9 19L12 19L12 20L11 20L11 21L10 21L10 22L12 22L12 20L14 20L14 22L13 22L13 23L14 23L14 22L15 22L15 20L16 20L16 22L18 22L18 23L16 23L16 24L15 24L15 25L18 25L18 24L20 24L20 25L19 25L19 26L21 26L21 27L20 27L20 29L23 29L23 28L24 28L24 29L26 29L26 27L27 27L27 29L29 29L29 28L28 28L28 27L29 27L29 24L27 24L27 26L26 26L26 22L27 22L27 23L29 23L29 21L26 21L26 22L25 22L25 20L26 20L26 18L27 18L27 20L28 20L28 19L29 19L29 16L28 16L28 15L29 15L29 12L28 12L28 11L29 11L29 9L28 9L28 10L26 10L26 9L27 9L27 8L26 8L26 9L25 9L25 10L24 10L24 9L23 9L23 8L21 8L21 10L20 10L20 11L18 11L18 10L17 10L17 9L18 9L18 7L19 7L19 8L20 8L20 7L21 7L21 6L20 6L20 5L21 5L21 4L19 4L19 3L20 3L20 2L21 2L21 1L20 1L20 0L19 0L19 2L18 2L18 1L17 1L17 0L15 0L15 1L13 1L13 2L15 2L15 3L16 3L16 2L18 2L18 4L19 4L19 6L18 6L18 7L17 7L17 6L16 6L16 5L17 5L17 4L14 4L14 3L12 3L12 2L11 2L11 3L12 3L12 5L10 5L10 3L9 3L9 2L10 2L10 1L11 1L11 0ZM13 5L13 7L12 7L12 6L11 6L11 7L12 7L12 8L13 8L13 9L14 9L14 10L13 10L13 11L14 11L14 10L15 10L15 11L16 11L16 12L17 12L17 10L16 10L16 9L17 9L17 8L15 8L15 7L16 7L16 6L15 6L15 7L14 7L14 5ZM19 6L19 7L20 7L20 6ZM4 9L4 10L5 10L5 11L6 11L6 12L8 12L8 13L5 13L5 14L8 14L8 15L9 15L9 18L8 18L8 16L7 16L7 15L6 15L6 16L5 16L5 15L4 15L4 16L3 16L3 17L4 17L4 16L5 16L5 17L6 17L6 18L7 18L7 19L9 19L9 18L11 18L11 17L12 17L12 16L13 16L13 17L14 17L14 18L13 18L13 19L14 19L14 18L15 18L15 19L17 19L17 18L16 18L16 16L15 16L15 15L16 15L16 13L15 13L15 14L14 14L14 12L12 12L12 11L11 11L11 12L12 12L12 14L11 14L11 15L10 15L10 12L8 12L8 11L10 11L10 10L9 10L9 9L8 9L8 11L6 11L6 10L7 10L7 9L6 9L6 10L5 10L5 9ZM22 10L22 11L24 11L24 14L23 14L23 15L22 15L22 12L21 12L21 11L20 11L20 12L18 12L18 15L20 15L20 16L18 16L18 17L19 17L19 19L18 19L18 22L20 22L20 21L19 21L19 19L20 19L20 20L21 20L21 19L20 19L20 18L21 18L21 17L22 17L22 16L23 16L23 17L24 17L24 19L23 19L23 18L22 18L22 19L23 19L23 20L25 20L25 18L26 18L26 17L27 17L27 18L28 18L28 17L27 17L27 14L28 14L28 13L27 13L27 11L26 11L26 10L25 10L25 11L24 11L24 10ZM25 11L25 14L27 14L27 13L26 13L26 11ZM3 12L3 14L4 14L4 12ZM8 13L8 14L9 14L9 13ZM13 14L13 15L14 15L14 14ZM20 14L20 15L21 15L21 16L22 16L22 15L21 15L21 14ZM11 15L11 16L10 16L10 17L11 17L11 16L12 16L12 15ZM24 15L24 16L26 16L26 15ZM6 16L6 17L7 17L7 16ZM3 18L3 19L2 19L2 20L4 20L4 19L5 19L5 18ZM21 21L21 24L24 24L24 21ZM22 22L22 23L23 23L23 22ZM11 24L11 25L12 25L12 24ZM22 25L22 28L23 28L23 27L24 27L24 25ZM9 26L9 28L12 28L12 27L10 27L10 26ZM13 26L13 27L14 27L14 26ZM27 26L27 27L28 27L28 26ZM17 27L17 29L18 29L18 28L19 28L19 27ZM0 0L0 7L7 7L7 0ZM1 1L1 6L6 6L6 1ZM2 2L2 5L5 5L5 2ZM22 0L22 7L29 7L29 0ZM23 1L23 6L28 6L28 1ZM24 2L24 5L27 5L27 2ZM0 22L0 29L7 29L7 22ZM1 23L1 28L6 28L6 23ZM2 24L2 27L5 27L5 24Z" fill="#00803c"/></g></g></svg>
