<?xml version="1.0" encoding="UTF-8"?>
<svg xmlns="http://www.w3.org/2000/svg" version="1.1" width="500" height="500" viewBox="0 0 500 500"><rect x="0" y="0" width="500" height="500" fill="#ffffff"/><g transform="scale(20)"><g transform="translate(0,0)"><path fill-rule="evenodd" d="M9 0L9 1L8 1L8 3L9 3L9 4L8 4L8 8L6 8L6 9L8 9L8 10L9 10L9 11L11 11L11 10L12 10L12 9L11 9L11 8L10 8L10 7L11 7L11 6L12 6L12 8L13 8L13 9L14 9L14 10L13 10L13 12L12 12L12 13L9 13L9 14L8 14L8 15L9 15L9 14L12 14L12 16L11 16L11 15L10 15L10 16L9 16L9 17L8 17L8 19L9 19L9 20L10 20L10 21L11 21L11 22L9 22L9 21L8 21L8 22L9 22L9 23L8 23L8 25L9 25L9 24L10 24L10 25L12 25L12 24L14 24L14 25L17 25L17 24L18 24L18 25L20 25L20 24L19 24L19 23L17 23L17 22L16 22L16 21L19 21L19 22L20 22L20 23L21 23L21 24L22 24L22 23L23 23L23 21L22 21L22 22L21 22L21 20L23 20L23 19L25 19L25 17L24 17L24 18L23 18L23 16L24 16L24 15L25 15L25 12L23 12L23 13L22 13L22 12L21 12L21 14L22 14L22 15L20 15L20 16L17 16L17 15L19 15L19 14L20 14L20 13L19 13L19 9L21 9L21 8L18 8L18 9L16 9L16 11L17 11L17 15L16 15L16 16L14 16L14 15L13 15L13 13L14 13L14 14L15 14L15 9L14 9L14 8L13 8L13 6L14 6L14 7L15 7L15 8L16 8L16 7L17 7L17 6L16 6L16 4L17 4L17 0L15 0L15 3L16 3L16 4L15 4L15 5L14 5L14 4L13 4L13 6L12 6L12 5L11 5L11 6L10 6L10 5L9 5L9 4L12 4L12 3L13 3L13 1L14 1L14 0L12 0L12 1L11 1L11 2L9 2L9 1L10 1L10 0ZM9 6L9 7L10 7L10 6ZM15 6L15 7L16 7L16 6ZM0 8L0 13L1 13L1 14L0 14L0 15L1 15L1 16L0 16L0 17L2 17L2 15L4 15L4 14L5 14L5 15L7 15L7 14L6 14L6 13L8 13L8 12L6 12L6 11L7 11L7 10L4 10L4 8L3 8L3 9L2 9L2 8ZM8 8L8 9L9 9L9 10L10 10L10 8ZM22 8L22 9L24 9L24 10L23 10L23 11L25 11L25 9L24 9L24 8ZM1 9L1 12L4 12L4 10L2 10L2 9ZM17 10L17 11L18 11L18 10ZM3 13L3 14L4 14L4 13ZM23 13L23 15L22 15L22 16L23 16L23 15L24 15L24 13ZM1 14L1 15L2 15L2 14ZM3 16L3 17L5 17L5 16ZM6 16L6 17L7 17L7 16ZM12 16L12 17L9 17L9 19L10 19L10 20L11 20L11 19L12 19L12 20L13 20L13 21L14 21L14 22L15 22L15 23L14 23L14 24L15 24L15 23L16 23L16 22L15 22L15 21L16 21L16 19L15 19L15 18L14 18L14 17L13 17L13 16ZM17 17L17 20L20 20L20 17ZM10 18L10 19L11 19L11 18ZM13 18L13 20L14 20L14 21L15 21L15 20L14 20L14 18ZM18 18L18 19L19 19L19 18ZM21 18L21 19L23 19L23 18ZM24 20L24 21L25 21L25 20ZM24 22L24 23L25 23L25 22ZM23 24L23 25L25 25L25 24ZM0 0L0 7L7 7L7 0ZM1 1L1 6L6 6L6 1ZM2 2L2 5L5 5L5 2ZM18 0L18 7L25 7L25 0ZM19 1L19 6L24 6L24 1ZM20 2L20 5L23 5L23 2ZM0 18L0 25L7 25L7 18ZM1 19L1 24L6 24L6 19ZM2 20L2 23L5 23L5 20Z" fill="#00803c"/></g></g></svg>
