<?xml version="1.0" encoding="UTF-8"?>
<svg xmlns="http://www.w3.org/2000/svg" version="1.1" width="500" height="500" viewBox="0 0 500 500"><rect x="0" y="0" width="500" height="500" fill="#ffffff"/><g transform="scale(17.241)"><g transform="translate(0,0)"><path fill-rule="evenodd" d="M10 0L10 2L11 2L11 0ZM12 0L12 1L14 1L14 0ZM16 0L16 1L15 1L15 2L14 2L14 3L13 3L13 2L12 2L12 4L14 4L14 5L15 5L15 6L14 6L14 7L15 7L15 6L16 6L16 7L17 7L17 6L18 6L18 8L17 8L17 9L16 9L16 8L13 8L13 9L12 9L12 7L13 7L13 5L11 5L11 6L10 6L10 4L11 4L11 3L8 3L8 4L9 4L9 5L8 5L8 7L9 7L9 8L6 8L6 9L10 9L10 11L11 11L11 9L12 9L12 10L13 10L13 9L14 9L14 11L18 11L18 10L20 10L20 9L21 9L21 10L22 10L22 11L21 11L21 12L20 12L20 13L18 13L18 12L13 12L13 11L12 11L12 13L13 13L13 14L9 14L9 13L11 13L11 12L9 12L9 10L6 10L6 11L8 11L8 12L4 12L4 11L5 11L5 10L4 10L4 9L5 9L5 8L0 8L0 12L2 12L2 13L0 13L0 14L5 14L5 18L4 18L4 20L3 20L3 21L8 21L8 23L9 23L9 24L8 24L8 29L9 29L9 28L11 28L11 27L9 27L9 24L10 24L10 23L11 23L11 25L10 25L10 26L11 26L11 25L12 25L12 26L13 26L13 27L14 27L14 28L13 28L13 29L14 29L14 28L15 28L15 29L18 29L18 28L15 28L15 27L17 27L17 26L19 26L19 25L18 25L18 24L17 24L17 21L18 21L18 23L20 23L20 27L19 27L19 28L22 28L22 27L23 27L23 26L24 26L24 27L26 27L26 26L24 26L24 25L27 25L27 28L24 28L24 29L27 29L27 28L28 28L28 26L29 26L29 24L28 24L28 23L27 23L27 22L29 22L29 20L28 20L28 19L27 19L27 16L28 16L28 15L27 15L27 12L28 12L28 11L27 11L27 12L25 12L25 9L26 9L26 8L25 8L25 9L24 9L24 8L23 8L23 9L22 9L22 8L20 8L20 9L18 9L18 8L19 8L19 5L20 5L20 3L21 3L21 0L19 0L19 1L18 1L18 3L15 3L15 2L16 2L16 1L17 1L17 0ZM8 1L8 2L9 2L9 1ZM19 1L19 2L20 2L20 1ZM18 3L18 4L17 4L17 5L19 5L19 3ZM15 4L15 5L16 5L16 4ZM9 6L9 7L10 7L10 6ZM11 6L11 7L12 7L12 6ZM20 6L20 7L21 7L21 6ZM10 8L10 9L11 9L11 8ZM27 8L27 9L28 9L28 10L29 10L29 9L28 9L28 8ZM2 9L2 10L3 10L3 9ZM15 9L15 10L16 10L16 9ZM23 9L23 12L22 12L22 13L20 13L20 14L18 14L18 13L17 13L17 14L16 14L16 13L14 13L14 14L13 14L13 15L12 15L12 17L9 17L9 18L8 18L8 17L6 17L6 18L8 18L8 19L5 19L5 20L8 20L8 21L9 21L9 23L10 23L10 21L9 21L9 20L11 20L11 22L13 22L13 21L12 21L12 19L13 19L13 20L14 20L14 19L13 19L13 18L12 18L12 17L13 17L13 16L14 16L14 15L15 15L15 17L14 17L14 18L16 18L16 17L17 17L17 18L19 18L19 20L18 20L18 19L16 19L16 20L15 20L15 21L14 21L14 22L16 22L16 21L17 21L17 20L18 20L18 21L19 21L19 20L21 20L21 19L22 19L22 18L21 18L21 17L20 17L20 16L21 16L21 14L22 14L22 17L23 17L23 18L24 18L24 19L25 19L25 21L26 21L26 20L27 20L27 19L25 19L25 18L24 18L24 17L26 17L26 16L27 16L27 15L26 15L26 13L25 13L25 12L24 12L24 9ZM8 12L8 13L9 13L9 12ZM23 12L23 13L22 13L22 14L23 14L23 13L24 13L24 14L25 14L25 13L24 13L24 12ZM6 13L6 14L7 14L7 13ZM28 13L28 14L29 14L29 13ZM15 14L15 15L16 15L16 16L17 16L17 17L18 17L18 16L17 16L17 15L18 15L18 14L17 14L17 15L16 15L16 14ZM1 15L1 16L0 16L0 21L1 21L1 18L2 18L2 17L4 17L4 15L3 15L3 16L2 16L2 15ZM6 15L6 16L9 16L9 15ZM10 15L10 16L11 16L11 15ZM23 15L23 16L24 16L24 15ZM1 16L1 17L2 17L2 16ZM19 17L19 18L20 18L20 17ZM28 17L28 18L29 18L29 17ZM9 18L9 19L11 19L11 18ZM21 21L21 24L24 24L24 21ZM22 22L22 23L23 23L23 22ZM12 23L12 24L14 24L14 26L17 26L17 24L16 24L16 23ZM25 23L25 24L27 24L27 25L28 25L28 24L27 24L27 23ZM22 25L22 26L21 26L21 27L22 27L22 26L23 26L23 25ZM0 0L0 7L7 7L7 0ZM1 1L1 6L6 6L6 1ZM2 2L2 5L5 5L5 2ZM22 0L22 7L29 7L29 0ZM23 1L23 6L28 6L28 1ZM24 2L24 5L27 5L27 2ZM0 22L0 29L7 29L7 22ZM1 23L1 28L6 28L6 23ZM2 24L2 27L5 27L5 24Z" fill="#00803c"/></g></g></svg>
