<?xml version="1.0" encoding="UTF-8"?>
<svg xmlns="http://www.w3.org/2000/svg" version="1.1" width="500" height="500" viewBox="0 0 500 500"><rect x="0" y="0" width="500" height="500" fill="#ffffff"/><g transform="scale(17.241)"><g transform="translate(0,0)"><path fill-rule="evenodd" d="M8 0L8 1L10 1L10 0ZM13 0L13 1L14 1L14 2L11 2L11 4L10 4L10 3L9 3L9 2L8 2L8 5L9 5L9 6L8 6L8 7L9 7L9 8L8 8L8 10L6 10L6 9L7 9L7 8L6 8L6 9L4 9L4 8L0 8L0 9L1 9L1 10L0 10L0 12L1 12L1 10L2 10L2 12L3 12L3 13L2 13L2 14L1 14L1 15L0 15L0 16L1 16L1 18L0 18L0 19L1 19L1 18L5 18L5 17L7 17L7 18L6 18L6 19L8 19L8 20L6 20L6 21L8 21L8 22L11 22L11 23L9 23L9 25L8 25L8 29L10 29L10 28L12 28L12 29L13 29L13 28L12 28L12 26L13 26L13 27L14 27L14 29L16 29L16 28L17 28L17 27L19 27L19 26L18 26L18 24L17 24L17 23L15 23L15 24L14 24L14 26L13 26L13 24L12 24L12 25L10 25L10 24L11 24L11 23L14 23L14 22L15 22L15 21L16 21L16 22L17 22L17 21L19 21L19 19L18 19L18 17L20 17L20 18L21 18L21 19L22 19L22 20L20 20L20 22L19 22L19 23L20 23L20 25L21 25L21 26L20 26L20 29L22 29L22 27L21 27L21 26L22 26L22 25L23 25L23 29L25 29L25 28L26 28L26 27L27 27L27 29L28 29L28 27L29 27L29 25L28 25L28 27L27 27L27 24L28 24L28 22L29 22L29 21L27 21L27 18L28 18L28 15L29 15L29 13L27 13L27 12L26 12L26 11L28 11L28 12L29 12L29 11L28 11L28 10L29 10L29 8L28 8L28 10L26 10L26 11L25 11L25 13L27 13L27 14L25 14L25 15L27 15L27 17L26 17L26 18L24 18L24 17L25 17L25 16L24 16L24 15L23 15L23 13L22 13L22 14L20 14L20 13L21 13L21 12L20 12L20 13L19 13L19 11L18 11L18 10L21 10L21 11L22 11L22 12L24 12L24 11L22 11L22 10L25 10L25 9L27 9L27 8L24 8L24 9L22 9L22 8L19 8L19 6L20 6L20 7L21 7L21 6L20 6L20 3L21 3L21 2L20 2L20 3L19 3L19 2L18 2L18 3L17 3L17 4L15 4L15 1L14 1L14 0ZM16 0L16 1L17 1L17 0ZM19 0L19 1L21 1L21 0ZM12 3L12 5L10 5L10 6L9 6L9 7L10 7L10 8L9 8L9 9L10 9L10 10L8 10L8 11L6 11L6 10L4 10L4 9L3 9L3 12L5 12L5 11L6 11L6 12L7 12L7 13L5 13L5 14L4 14L4 13L3 13L3 14L2 14L2 16L3 16L3 14L4 14L4 15L5 15L5 16L4 16L4 17L5 17L5 16L7 16L7 17L8 17L8 19L11 19L11 20L8 20L8 21L11 21L11 22L12 22L12 21L11 21L11 20L12 20L12 19L11 19L11 18L12 18L12 17L14 17L14 18L13 18L13 20L14 20L14 21L15 21L15 20L16 20L16 19L17 19L17 17L18 17L18 15L17 15L17 14L19 14L19 13L17 13L17 12L18 12L18 11L17 11L17 12L16 12L16 13L17 13L17 14L15 14L15 15L14 15L14 14L13 14L13 13L15 13L15 11L16 11L16 9L15 9L15 10L14 10L14 8L15 8L15 7L16 7L16 8L17 8L17 7L18 7L18 6L19 6L19 5L18 5L18 4L19 4L19 3L18 3L18 4L17 4L17 5L15 5L15 4L13 4L13 3ZM12 5L12 7L11 7L11 6L10 6L10 7L11 7L11 8L12 8L12 7L13 7L13 5ZM14 6L14 7L15 7L15 6ZM16 6L16 7L17 7L17 6ZM17 9L17 10L18 10L18 9ZM21 9L21 10L22 10L22 9ZM8 11L8 14L6 14L6 15L9 15L9 18L10 18L10 15L11 15L11 14L12 14L12 16L11 16L11 17L12 17L12 16L14 16L14 15L13 15L13 14L12 14L12 12L14 12L14 11L11 11L11 13L10 13L10 12L9 12L9 11ZM15 15L15 16L16 16L16 15ZM19 15L19 16L22 16L22 19L23 19L23 20L24 20L24 18L23 18L23 15ZM15 17L15 19L16 19L16 17ZM2 19L2 20L1 20L1 21L2 21L2 20L3 20L3 21L5 21L5 19L4 19L4 20L3 20L3 19ZM25 19L25 20L26 20L26 19ZM21 21L21 24L24 24L24 21ZM22 22L22 23L23 23L23 22ZM26 22L26 23L25 23L25 26L24 26L24 27L25 27L25 26L26 26L26 24L27 24L27 22ZM16 24L16 25L17 25L17 24ZM9 26L9 28L10 28L10 27L11 27L11 26ZM14 26L14 27L15 27L15 28L16 28L16 27L17 27L17 26ZM0 0L0 7L7 7L7 0ZM1 1L1 6L6 6L6 1ZM2 2L2 5L5 5L5 2ZM22 0L22 7L29 7L29 0ZM23 1L23 6L28 6L28 1ZM24 2L24 5L27 5L27 2ZM0 22L0 29L7 29L7 22ZM1 23L1 28L6 28L6 23ZM2 24L2 27L5 27L5 24Z" fill="#00803c"/></g></g></svg>
