<?xml version="1.0" encoding="UTF-8"?>
<svg xmlns="http://www.w3.org/2000/svg" version="1.1" width="500" height="500" viewBox="0 0 500 500"><rect x="0" y="0" width="500" height="500" fill="#ffffff"/><g transform="scale(17.241)"><g transform="translate(0,0)"><path fill-rule="evenodd" d="M11 0L11 1L10 1L10 2L9 2L9 1L8 1L8 2L9 2L9 3L8 3L8 4L9 4L9 5L8 5L8 7L9 7L9 8L6 8L6 9L10 9L10 7L11 7L11 10L10 10L10 11L11 11L11 10L12 10L12 9L13 9L13 11L12 11L12 12L8 12L8 13L7 13L7 12L5 12L5 13L7 13L7 14L4 14L4 15L3 15L3 13L2 13L2 15L3 15L3 16L2 16L2 17L3 17L3 18L2 18L2 19L3 19L3 18L4 18L4 16L5 16L5 18L6 18L6 19L4 19L4 20L2 20L2 21L4 21L4 20L5 20L5 21L7 21L7 20L8 20L8 23L9 23L9 22L10 22L10 23L11 23L11 22L12 22L12 21L11 21L11 19L10 19L10 18L12 18L12 20L13 20L13 21L14 21L14 22L13 22L13 23L12 23L12 24L8 24L8 29L11 29L11 28L13 28L13 29L15 29L15 27L16 27L16 28L17 28L17 29L19 29L19 28L17 28L17 27L18 27L18 26L19 26L19 27L20 27L20 28L22 28L22 27L23 27L23 28L26 28L26 29L27 29L27 28L28 28L28 26L29 26L29 25L28 25L28 26L26 26L26 27L25 27L25 26L21 26L21 25L25 25L25 24L26 24L26 25L27 25L27 24L28 24L28 23L27 23L27 22L29 22L29 20L28 20L28 19L27 19L27 16L28 16L28 15L27 15L27 12L28 12L28 11L27 11L27 12L25 12L25 9L26 9L26 8L25 8L25 9L24 9L24 8L23 8L23 9L22 9L22 8L21 8L21 6L20 6L20 9L18 9L18 8L15 8L15 6L16 6L16 7L17 7L17 6L16 6L16 5L18 5L18 7L19 7L19 5L21 5L21 4L20 4L20 3L21 3L21 0L19 0L19 1L17 1L17 0L16 0L16 1L14 1L14 0ZM11 1L11 2L12 2L12 3L14 3L14 1L13 1L13 2L12 2L12 1ZM19 1L19 2L16 2L16 4L15 4L15 5L14 5L14 4L12 4L12 5L11 5L11 7L12 7L12 8L14 8L14 10L16 10L16 9L15 9L15 8L14 8L14 6L15 6L15 5L16 5L16 4L17 4L17 3L18 3L18 5L19 5L19 2L20 2L20 1ZM9 3L9 4L11 4L11 3ZM13 5L13 6L12 6L12 7L13 7L13 6L14 6L14 5ZM9 6L9 7L10 7L10 6ZM0 8L0 9L1 9L1 11L0 11L0 12L4 12L4 11L7 11L7 10L4 10L4 9L5 9L5 8ZM27 8L27 9L28 9L28 10L29 10L29 9L28 9L28 8ZM2 9L2 10L3 10L3 9ZM17 9L17 12L16 12L16 11L15 11L15 12L16 12L16 13L14 13L14 14L13 14L13 13L12 13L12 14L11 14L11 13L9 13L9 15L5 15L5 16L7 16L7 17L6 17L6 18L7 18L7 17L8 17L8 20L10 20L10 19L9 19L9 18L10 18L10 17L12 17L12 18L13 18L13 16L14 16L14 15L15 15L15 17L14 17L14 18L16 18L16 19L13 19L13 20L18 20L18 21L17 21L17 22L16 22L16 21L15 21L15 22L14 22L14 23L13 23L13 24L14 24L14 23L15 23L15 22L16 22L16 24L18 24L18 25L17 25L17 26L18 26L18 25L19 25L19 26L20 26L20 24L18 24L18 23L17 23L17 22L20 22L20 21L19 21L19 20L20 20L20 19L21 19L21 18L22 18L22 19L24 19L24 20L25 20L25 21L26 21L26 20L27 20L27 19L24 19L24 18L22 18L22 17L26 17L26 16L27 16L27 15L26 15L26 13L25 13L25 12L23 12L23 10L22 10L22 9L21 9L21 11L20 11L20 10L19 10L19 11L18 11L18 9ZM8 10L8 11L9 11L9 10ZM13 11L13 12L14 12L14 11ZM19 11L19 12L17 12L17 13L16 13L16 14L15 14L15 15L16 15L16 16L17 16L17 17L16 17L16 18L17 18L17 19L18 19L18 18L21 18L21 17L20 17L20 16L19 16L19 15L18 15L18 14L20 14L20 15L21 15L21 14L24 14L24 15L23 15L23 16L24 16L24 15L25 15L25 13L21 13L21 12L22 12L22 11L21 11L21 12L20 12L20 11ZM19 12L19 13L20 13L20 12ZM0 13L0 16L1 16L1 13ZM28 13L28 14L29 14L29 13ZM10 14L10 15L9 15L9 17L10 17L10 15L11 15L11 14ZM12 14L12 15L13 15L13 14ZM17 15L17 16L18 16L18 17L19 17L19 16L18 16L18 15ZM0 17L0 21L1 21L1 17ZM28 17L28 18L29 18L29 17ZM6 19L6 20L7 20L7 19ZM10 21L10 22L11 22L11 21ZM21 21L21 24L24 24L24 21ZM22 22L22 23L23 23L23 22ZM26 23L26 24L27 24L27 23ZM9 25L9 27L12 27L12 26L14 26L14 27L13 27L13 28L14 28L14 27L15 27L15 26L16 26L16 25L12 25L12 26L10 26L10 25ZM26 27L26 28L27 28L27 27ZM0 0L0 7L7 7L7 0ZM1 1L1 6L6 6L6 1ZM2 2L2 5L5 5L5 2ZM22 0L22 7L29 7L29 0ZM23 1L23 6L28 6L28 1ZM24 2L24 5L27 5L27 2ZM0 22L0 29L7 29L7 22ZM1 23L1 28L6 28L6 23ZM2 24L2 27L5 27L5 24Z" fill="#00803c"/></g></g></svg>
