<?xml version="1.0" encoding="UTF-8"?>
<svg xmlns="http://www.w3.org/2000/svg" version="1.1" width="500" height="500" viewBox="0 0 500 500"><rect x="0" y="0" width="500" height="500" fill="#ffffff"/><g transform="scale(17.241)"><g transform="translate(0,0)"><path fill-rule="evenodd" d="M10 0L10 1L8 1L8 3L9 3L9 4L8 4L8 8L6 8L6 9L7 9L7 10L5 10L5 9L4 9L4 8L3 8L3 9L2 9L2 8L0 8L0 9L1 9L1 10L2 10L2 11L3 11L3 10L5 10L5 11L4 11L4 13L5 13L5 12L6 12L6 13L7 13L7 14L5 14L5 15L3 15L3 16L2 16L2 15L1 15L1 16L2 16L2 17L3 17L3 16L5 16L5 17L4 17L4 18L3 18L3 19L2 19L2 21L3 21L3 20L4 20L4 19L7 19L7 20L5 20L5 21L8 21L8 23L9 23L9 24L10 24L10 25L8 25L8 26L10 26L10 27L11 27L11 26L12 26L12 28L11 28L11 29L12 29L12 28L13 28L13 29L15 29L15 27L13 27L13 24L12 24L12 25L11 25L11 24L10 24L10 23L11 23L11 22L12 22L12 21L11 21L11 19L12 19L12 20L13 20L13 18L14 18L14 20L15 20L15 17L14 17L14 16L12 16L12 12L14 12L14 13L13 13L13 15L15 15L15 16L16 16L16 15L15 15L15 14L14 14L14 13L17 13L17 14L18 14L18 12L22 12L22 13L23 13L23 14L22 14L22 15L21 15L21 16L22 16L22 15L24 15L24 16L25 16L25 17L26 17L26 15L27 15L27 17L28 17L28 18L27 18L27 20L26 20L26 22L27 22L27 23L25 23L25 20L22 20L22 18L23 18L23 19L24 19L24 18L23 18L23 17L20 17L20 15L17 15L17 17L16 17L16 18L17 18L17 19L16 19L16 24L15 24L15 23L14 23L14 24L15 24L15 25L16 25L16 26L17 26L17 28L16 28L16 29L18 29L18 28L19 28L19 29L22 29L22 26L23 26L23 28L24 28L24 29L25 29L25 28L26 28L26 26L25 26L25 25L26 25L26 24L27 24L27 26L28 26L28 27L27 27L27 29L28 29L28 27L29 27L29 26L28 26L28 25L29 25L29 23L28 23L28 22L29 22L29 21L27 21L27 20L29 20L29 17L28 17L28 15L29 15L29 14L27 14L27 13L29 13L29 12L28 12L28 10L29 10L29 9L28 9L28 8L26 8L26 9L25 9L25 8L22 8L22 9L21 9L21 8L20 8L20 9L21 9L21 10L19 10L19 11L18 11L18 10L17 10L17 8L18 8L18 7L19 7L19 6L20 6L20 7L21 7L21 4L20 4L20 5L19 5L19 6L18 6L18 5L17 5L17 4L15 4L15 3L16 3L16 2L17 2L17 3L18 3L18 4L19 4L19 3L21 3L21 1L20 1L20 0L19 0L19 1L20 1L20 2L18 2L18 1L16 1L16 0L14 0L14 2L15 2L15 3L14 3L14 4L13 4L13 3L12 3L12 7L11 7L11 4L10 4L10 3L9 3L9 2L11 2L11 0ZM9 5L9 8L8 8L8 11L6 11L6 12L7 12L7 13L8 13L8 12L9 12L9 13L10 13L10 14L8 14L8 15L6 15L6 16L7 16L7 17L5 17L5 18L7 18L7 19L8 19L8 17L9 17L9 18L12 18L12 16L10 16L10 17L9 17L9 16L8 16L8 15L10 15L10 14L11 14L11 13L10 13L10 12L9 12L9 11L11 11L11 8L10 8L10 5ZM13 6L13 7L12 7L12 8L14 8L14 6ZM15 6L15 7L16 7L16 8L15 8L15 11L17 11L17 12L18 12L18 11L17 11L17 10L16 10L16 8L17 8L17 7L18 7L18 6L17 6L17 7L16 7L16 6ZM9 9L9 10L10 10L10 9ZM24 9L24 10L23 10L23 12L24 12L24 15L26 15L26 13L27 13L27 12L26 12L26 13L25 13L25 11L24 11L24 10L25 10L25 9ZM26 9L26 10L28 10L28 9ZM13 10L13 11L14 11L14 10ZM2 12L2 14L3 14L3 12ZM0 13L0 14L1 14L1 13ZM19 13L19 14L20 14L20 13ZM18 16L18 17L17 17L17 18L18 18L18 17L19 17L19 19L18 19L18 20L17 20L17 21L18 21L18 22L17 22L17 24L18 24L18 25L17 25L17 26L18 26L18 27L19 27L19 28L20 28L20 24L18 24L18 22L19 22L19 23L20 23L20 21L19 21L19 20L21 20L21 19L20 19L20 17L19 17L19 16ZM0 18L0 19L1 19L1 18ZM25 18L25 19L26 19L26 18ZM9 19L9 20L8 20L8 21L10 21L10 22L9 22L9 23L10 23L10 22L11 22L11 21L10 21L10 19ZM0 20L0 21L1 21L1 20ZM14 21L14 22L15 22L15 21ZM21 21L21 24L24 24L24 21ZM22 22L22 23L23 23L23 22ZM27 23L27 24L28 24L28 23ZM10 25L10 26L11 26L11 25ZM23 25L23 26L24 26L24 25ZM8 27L8 29L10 29L10 28L9 28L9 27ZM0 0L0 7L7 7L7 0ZM1 1L1 6L6 6L6 1ZM2 2L2 5L5 5L5 2ZM22 0L22 7L29 7L29 0ZM23 1L23 6L28 6L28 1ZM24 2L24 5L27 5L27 2ZM0 22L0 29L7 29L7 22ZM1 23L1 28L6 28L6 23ZM2 24L2 27L5 27L5 24Z" fill="#00803c"/></g></g></svg>
