<?xml version="1.0" encoding="UTF-8"?>
<svg xmlns="http://www.w3.org/2000/svg" version="1.1" width="500" height="500" viewBox="0 0 500 500"><rect x="0" y="0" width="500" height="500" fill="#ffffff"/><g transform="scale(17.241)"><g transform="translate(0,0)"><path fill-rule="evenodd" d="M8 0L8 4L10 4L10 3L11 3L11 4L12 4L12 2L11 2L11 0ZM12 0L12 1L13 1L13 2L15 2L15 1L16 1L16 2L17 2L17 3L16 3L16 4L15 4L15 3L13 3L13 4L14 4L14 5L16 5L16 4L17 4L17 5L18 5L18 7L17 7L17 6L16 6L16 7L17 7L17 9L15 9L15 11L14 11L14 9L13 9L13 5L11 5L11 6L10 6L10 7L9 7L9 5L8 5L8 7L9 7L9 8L10 8L10 7L11 7L11 6L12 6L12 8L11 8L11 9L8 9L8 10L11 10L11 11L10 11L10 13L11 13L11 14L8 14L8 13L7 13L7 12L8 12L8 11L7 11L7 10L6 10L6 11L5 11L5 9L7 9L7 8L4 8L4 9L2 9L2 8L0 8L0 9L1 9L1 10L0 10L0 14L1 14L1 12L2 12L2 11L1 11L1 10L4 10L4 11L3 11L3 13L4 13L4 14L5 14L5 13L4 13L4 11L5 11L5 12L6 12L6 13L7 13L7 14L6 14L6 15L7 15L7 14L8 14L8 15L10 15L10 16L4 16L4 17L2 17L2 18L4 18L4 17L8 17L8 18L6 18L6 19L8 19L8 20L4 20L4 19L2 19L2 20L0 20L0 21L3 21L3 20L4 20L4 21L8 21L8 22L9 22L9 20L10 20L10 23L11 23L11 24L13 24L13 23L12 23L12 21L11 21L11 20L10 20L10 19L13 19L13 18L14 18L14 20L16 20L16 21L14 21L14 23L16 23L16 25L13 25L13 26L15 26L15 27L14 27L14 28L15 28L15 29L16 29L16 28L15 28L15 27L16 27L16 26L17 26L17 25L18 25L18 27L17 27L17 29L22 29L22 28L23 28L23 27L22 27L22 25L25 25L25 26L26 26L26 27L25 27L25 29L26 29L26 27L27 27L27 29L28 29L28 28L29 28L29 25L26 25L26 23L27 23L27 24L29 24L29 17L28 17L28 16L29 16L29 13L28 13L28 12L29 12L29 8L25 8L25 9L24 9L24 8L23 8L23 9L21 9L21 10L20 10L20 11L18 11L18 10L19 10L19 9L20 9L20 8L21 8L21 5L18 5L18 4L20 4L20 3L21 3L21 2L20 2L20 1L17 1L17 0L15 0L15 1L14 1L14 0ZM9 2L9 3L10 3L10 2ZM17 3L17 4L18 4L18 3ZM14 6L14 8L15 8L15 6ZM19 6L19 8L18 8L18 9L17 9L17 10L18 10L18 9L19 9L19 8L20 8L20 6ZM11 9L11 10L12 10L12 11L13 11L13 12L11 12L11 13L14 13L14 14L13 14L13 17L14 17L14 18L15 18L15 17L17 17L17 16L15 16L15 15L14 15L14 14L15 14L15 13L17 13L17 11L15 11L15 12L14 12L14 11L13 11L13 10L12 10L12 9ZM21 10L21 11L20 11L20 13L19 13L19 15L18 15L18 14L16 14L16 15L18 15L18 17L19 17L19 20L18 20L18 21L17 21L17 22L16 22L16 23L18 23L18 25L19 25L19 21L20 21L20 19L21 19L21 17L20 17L20 16L22 16L22 17L25 17L25 18L24 18L24 19L22 19L22 20L24 20L24 19L25 19L25 20L26 20L26 21L25 21L25 22L27 22L27 23L28 23L28 20L27 20L27 19L28 19L28 18L27 18L27 15L28 15L28 14L27 14L27 11L28 11L28 10L23 10L23 12L22 12L22 13L21 13L21 11L22 11L22 10ZM6 11L6 12L7 12L7 11ZM22 13L22 16L23 16L23 15L24 15L24 16L25 16L25 17L26 17L26 16L25 16L25 15L24 15L24 14L26 14L26 15L27 15L27 14L26 14L26 13ZM2 14L2 15L0 15L0 16L3 16L3 14ZM20 14L20 15L21 15L21 14ZM11 15L11 16L12 16L12 15ZM0 17L0 18L1 18L1 17ZM9 18L9 19L10 19L10 18ZM17 18L17 19L16 19L16 20L17 20L17 19L18 19L18 18ZM25 18L25 19L27 19L27 18ZM21 21L21 24L24 24L24 21ZM22 22L22 23L23 23L23 22ZM8 23L8 25L10 25L10 26L9 26L9 27L8 27L8 29L13 29L13 27L12 27L12 25L10 25L10 24L9 24L9 23ZM20 25L20 26L21 26L21 25ZM10 27L10 28L12 28L12 27ZM19 27L19 28L20 28L20 27ZM0 0L0 7L7 7L7 0ZM1 1L1 6L6 6L6 1ZM2 2L2 5L5 5L5 2ZM22 0L22 7L29 7L29 0ZM23 1L23 6L28 6L28 1ZM24 2L24 5L27 5L27 2ZM0 22L0 29L7 29L7 22ZM1 23L1 28L6 28L6 23ZM2 24L2 27L5 27L5 24Z" fill="#00803c"/></g></g></svg>
