<?xml version="1.0" encoding="UTF-8"?>
<svg xmlns="http://www.w3.org/2000/svg" version="1.1" width="500" height="500" viewBox="0 0 500 500"><rect x="0" y="0" width="500" height="500" fill="#ffffff"/><g transform="scale(20)"><g transform="translate(0,0)"><path fill-rule="evenodd" d="M8 0L8 1L9 1L9 2L8 2L8 5L9 5L9 6L8 6L8 7L9 7L9 8L8 8L8 9L9 9L9 10L5 10L5 9L4 9L4 8L0 8L0 10L1 10L1 9L4 9L4 11L5 11L5 12L6 12L6 13L4 13L4 12L2 12L2 13L1 13L1 12L0 12L0 13L1 13L1 15L0 15L0 16L1 16L1 15L3 15L3 14L2 14L2 13L4 13L4 14L5 14L5 15L4 15L4 16L3 16L3 17L7 17L7 16L8 16L8 18L9 18L9 19L10 19L10 21L11 21L11 22L9 22L9 21L8 21L8 25L9 25L9 24L10 24L10 23L11 23L11 24L12 24L12 20L13 20L13 19L15 19L15 18L16 18L16 21L15 21L15 20L14 20L14 23L13 23L13 25L16 25L16 24L14 24L14 23L17 23L17 21L18 21L18 23L19 23L19 22L20 22L20 24L18 24L18 25L25 25L25 24L23 24L23 23L24 23L24 22L25 22L25 15L24 15L24 14L25 14L25 12L23 12L23 11L21 11L21 12L20 12L20 11L17 11L17 12L18 12L18 13L17 13L17 14L16 14L16 13L15 13L15 14L16 14L16 15L15 15L15 16L13 16L13 17L12 17L12 15L14 15L14 14L13 14L13 13L14 13L14 11L15 11L15 12L16 12L16 11L15 11L15 9L14 9L14 11L13 11L13 13L12 13L12 15L11 15L11 18L13 18L13 19L12 19L12 20L11 20L11 19L10 19L10 18L9 18L9 16L8 16L8 15L10 15L10 14L11 14L11 13L10 13L10 12L9 12L9 10L10 10L10 9L9 9L9 8L10 8L10 7L11 7L11 8L12 8L12 7L13 7L13 6L14 6L14 8L15 8L15 6L14 6L14 5L13 5L13 4L14 4L14 2L15 2L15 3L16 3L16 4L15 4L15 5L16 5L16 4L17 4L17 2L15 2L15 0L13 0L13 1L12 1L12 0ZM10 1L10 2L9 2L9 3L10 3L10 6L9 6L9 7L10 7L10 6L11 6L11 7L12 7L12 4L11 4L11 3L12 3L12 2L11 2L11 1ZM13 1L13 2L14 2L14 1ZM16 6L16 7L17 7L17 6ZM6 8L6 9L7 9L7 8ZM17 8L17 10L18 10L18 8ZM20 8L20 9L23 9L23 10L24 10L24 9L25 9L25 8L24 8L24 9L23 9L23 8ZM11 9L11 12L12 12L12 9ZM6 11L6 12L7 12L7 13L6 13L6 14L7 14L7 13L9 13L9 12L7 12L7 11ZM21 12L21 14L20 14L20 13L19 13L19 15L16 15L16 16L15 16L15 17L13 17L13 18L15 18L15 17L16 17L16 16L21 16L21 15L22 15L22 16L24 16L24 15L22 15L22 14L24 14L24 13L22 13L22 12ZM6 15L6 16L7 16L7 15ZM17 17L17 20L20 20L20 17ZM21 17L21 18L24 18L24 17ZM18 18L18 19L19 19L19 18ZM21 19L21 22L22 22L22 21L23 21L23 19ZM21 23L21 24L22 24L22 23ZM0 0L0 7L7 7L7 0ZM1 1L1 6L6 6L6 1ZM2 2L2 5L5 5L5 2ZM18 0L18 7L25 7L25 0ZM19 1L19 6L24 6L24 1ZM20 2L20 5L23 5L23 2ZM0 18L0 25L7 25L7 18ZM1 19L1 24L6 24L6 19ZM2 20L2 23L5 23L5 20Z" fill="#00803c"/></g></g></svg>
