<?xml version="1.0" encoding="UTF-8"?>
<svg xmlns="http://www.w3.org/2000/svg" version="1.1" width="500" height="500" viewBox="0 0 500 500"><rect x="0" y="0" width="500" height="500" fill="#ffffff"/><g transform="scale(17.241)"><g transform="translate(0,0)"><path fill-rule="evenodd" d="M9 0L9 1L8 1L8 3L9 3L9 4L8 4L8 8L6 8L6 9L7 9L7 10L5 10L5 9L4 9L4 8L3 8L3 10L1 10L1 9L2 9L2 8L0 8L0 10L1 10L1 11L0 11L0 13L1 13L1 14L2 14L2 13L3 13L3 12L1 12L1 11L3 11L3 10L4 10L4 12L5 12L5 13L8 13L8 14L9 14L9 15L10 15L10 16L9 16L9 17L7 17L7 16L8 16L8 15L7 15L7 14L5 14L5 15L7 15L7 16L5 16L5 17L7 17L7 18L6 18L6 19L7 19L7 18L9 18L9 19L8 19L8 23L9 23L9 25L8 25L8 26L9 26L9 27L8 27L8 29L11 29L11 28L12 28L12 29L14 29L14 28L12 28L12 24L14 24L14 25L13 25L13 27L15 27L15 24L14 24L14 23L15 23L15 22L14 22L14 21L15 21L15 20L16 20L16 19L17 19L17 20L18 20L18 21L20 21L20 23L18 23L18 22L17 22L17 21L16 21L16 23L18 23L18 24L17 24L17 27L16 27L16 28L15 28L15 29L16 29L16 28L17 28L17 29L18 29L18 27L19 27L19 25L18 25L18 24L20 24L20 28L19 28L19 29L22 29L22 26L23 26L23 28L24 28L24 29L25 29L25 28L26 28L26 26L25 26L25 25L26 25L26 24L28 24L28 22L29 22L29 21L27 21L27 20L29 20L29 17L28 17L28 15L29 15L29 14L27 14L27 13L29 13L29 12L28 12L28 10L29 10L29 9L28 9L28 8L26 8L26 9L25 9L25 8L22 8L22 9L21 9L21 8L20 8L20 9L21 9L21 10L19 10L19 11L18 11L18 12L17 12L17 11L15 11L15 12L14 12L14 11L13 11L13 12L12 12L12 13L9 13L9 11L11 11L11 10L12 10L12 9L11 9L11 8L10 8L10 7L11 7L11 6L12 6L12 8L13 8L13 9L14 9L14 8L16 8L16 10L18 10L18 9L17 9L17 8L18 8L18 7L19 7L19 6L20 6L20 7L21 7L21 4L20 4L20 5L19 5L19 3L21 3L21 1L20 1L20 0L18 0L18 1L20 1L20 2L19 2L19 3L18 3L18 2L17 2L17 1L16 1L16 0L15 0L15 1L14 1L14 2L15 2L15 3L14 3L14 4L13 4L13 5L14 5L14 8L13 8L13 6L12 6L12 5L11 5L11 6L10 6L10 5L9 5L9 4L12 4L12 3L13 3L13 0L12 0L12 1L11 1L11 2L9 2L9 1L10 1L10 0ZM16 2L16 3L15 3L15 4L14 4L14 5L15 5L15 4L18 4L18 3L17 3L17 2ZM17 5L17 7L18 7L18 6L19 6L19 5ZM9 6L9 7L10 7L10 6ZM15 6L15 7L16 7L16 6ZM8 8L8 10L10 10L10 8ZM24 9L24 10L23 10L23 12L24 12L24 15L22 15L22 14L23 14L23 13L22 13L22 12L18 12L18 14L17 14L17 13L15 13L15 15L14 15L14 13L13 13L13 15L14 15L14 16L15 16L15 18L14 18L14 17L13 17L13 16L12 16L12 14L11 14L11 16L12 16L12 17L11 17L11 19L12 19L12 20L13 20L13 21L14 21L14 20L15 20L15 19L16 19L16 16L15 16L15 15L18 15L18 14L19 14L19 15L20 15L20 17L19 17L19 16L18 16L18 18L19 18L19 20L21 20L21 19L20 19L20 17L23 17L23 18L22 18L22 20L25 20L25 23L27 23L27 22L26 22L26 20L27 20L27 18L28 18L28 17L27 17L27 15L26 15L26 13L27 13L27 12L26 12L26 13L25 13L25 11L24 11L24 10L25 10L25 9ZM26 9L26 10L28 10L28 9ZM5 11L5 12L8 12L8 11ZM19 13L19 14L20 14L20 13ZM3 14L3 16L4 16L4 14ZM0 15L0 16L1 16L1 17L2 17L2 18L3 18L3 19L2 19L2 21L4 21L4 20L3 20L3 19L5 19L5 18L4 18L4 17L2 17L2 16L1 16L1 15ZM21 15L21 16L22 16L22 15ZM24 15L24 16L25 16L25 17L26 17L26 15ZM0 18L0 19L1 19L1 18ZM13 18L13 20L14 20L14 18ZM23 18L23 19L24 19L24 18ZM25 18L25 19L26 19L26 18ZM9 19L9 20L10 20L10 21L9 21L9 23L10 23L10 25L9 25L9 26L11 26L11 23L10 23L10 22L11 22L11 20L10 20L10 19ZM0 20L0 21L1 21L1 20ZM6 20L6 21L7 21L7 20ZM21 21L21 24L24 24L24 21ZM22 22L22 23L23 23L23 22ZM23 25L23 26L24 26L24 25ZM27 25L27 26L28 26L28 27L27 27L27 29L28 29L28 27L29 27L29 26L28 26L28 25ZM0 0L0 7L7 7L7 0ZM1 1L1 6L6 6L6 1ZM2 2L2 5L5 5L5 2ZM22 0L22 7L29 7L29 0ZM23 1L23 6L28 6L28 1ZM24 2L24 5L27 5L27 2ZM0 22L0 29L7 29L7 22ZM1 23L1 28L6 28L6 23ZM2 24L2 27L5 27L5 24Z" fill="#00803c"/></g></g></svg>
