<?xml version="1.0" encoding="UTF-8"?>
<svg xmlns="http://www.w3.org/2000/svg" version="1.1" width="500" height="500" viewBox="0 0 500 500"><rect x="0" y="0" width="500" height="500" fill="#ffffff"/><g transform="scale(20)"><g transform="translate(0,0)"><path fill-rule="evenodd" d="M11 0L11 1L9 1L9 2L11 2L11 1L13 1L13 0ZM16 0L16 1L17 1L17 0ZM12 2L12 4L14 4L14 5L15 5L15 4L16 4L16 3L13 3L13 2ZM8 3L8 5L10 5L10 4L9 4L9 3ZM11 5L11 6L10 6L10 8L9 8L9 9L8 9L8 8L5 8L5 9L4 9L4 10L2 10L2 11L1 11L1 10L0 10L0 11L1 11L1 12L0 12L0 17L1 17L1 12L2 12L2 13L3 13L3 14L2 14L2 17L5 17L5 16L6 16L6 17L8 17L8 20L9 20L9 23L8 23L8 25L10 25L10 21L11 21L11 19L12 19L12 21L13 21L13 20L14 20L14 22L15 22L15 21L18 21L18 22L16 22L16 24L15 24L15 23L14 23L14 24L13 24L13 25L19 25L19 24L21 24L21 25L22 25L22 24L21 24L21 23L18 23L18 22L20 22L20 21L21 21L21 22L22 22L22 23L23 23L23 22L24 22L24 25L25 25L25 18L24 18L24 19L23 19L23 20L21 20L21 19L22 19L22 18L23 18L23 15L24 15L24 16L25 16L25 14L24 14L24 13L25 13L25 10L24 10L24 9L22 9L22 8L20 8L20 11L21 11L21 12L22 12L22 10L23 10L23 11L24 11L24 13L23 13L23 15L22 15L22 14L21 14L21 15L20 15L20 14L19 14L19 15L20 15L20 16L17 16L17 15L18 15L18 14L17 14L17 15L16 15L16 13L19 13L19 12L18 12L18 11L19 11L19 10L18 10L18 9L17 9L17 8L15 8L15 12L14 12L14 14L15 14L15 15L14 15L14 16L15 16L15 18L16 18L16 20L14 20L14 19L12 19L12 18L14 18L14 17L12 17L12 15L13 15L13 14L10 14L10 11L11 11L11 10L10 10L10 8L11 8L11 9L12 9L12 10L13 10L13 9L14 9L14 8L13 8L13 9L12 9L12 7L13 7L13 5ZM16 5L16 7L17 7L17 5ZM8 6L8 7L9 7L9 6ZM11 6L11 7L12 7L12 6ZM14 6L14 7L15 7L15 6ZM0 8L0 9L2 9L2 8ZM5 9L5 11L6 11L6 12L7 12L7 13L4 13L4 11L3 11L3 13L4 13L4 14L3 14L3 16L4 16L4 15L5 15L5 14L7 14L7 15L6 15L6 16L8 16L8 15L10 15L10 14L9 14L9 13L8 13L8 12L7 12L7 11L10 11L10 10L8 10L8 9ZM6 10L6 11L7 11L7 10ZM16 10L16 11L17 11L17 10ZM12 11L12 12L11 12L11 13L13 13L13 11ZM15 12L15 13L16 13L16 12ZM15 15L15 16L16 16L16 15ZM21 15L21 18L22 18L22 15ZM9 16L9 17L10 17L10 18L9 18L9 20L10 20L10 19L11 19L11 18L12 18L12 17L11 17L11 16ZM17 17L17 20L20 20L20 17ZM18 18L18 19L19 19L19 18ZM22 21L22 22L23 22L23 21ZM11 22L11 24L12 24L12 23L13 23L13 22ZM17 23L17 24L18 24L18 23ZM0 0L0 7L7 7L7 0ZM1 1L1 6L6 6L6 1ZM2 2L2 5L5 5L5 2ZM18 0L18 7L25 7L25 0ZM19 1L19 6L24 6L24 1ZM20 2L20 5L23 5L23 2ZM0 18L0 25L7 25L7 18ZM1 19L1 24L6 24L6 19ZM2 20L2 23L5 23L5 20Z" fill="#00803c"/></g></g></svg>
