<?xml version="1.0" encoding="UTF-8"?>
<svg xmlns="http://www.w3.org/2000/svg" version="1.1" width="500" height="500" viewBox="0 0 500 500"><rect x="0" y="0" width="500" height="500" fill="#ffffff"/><g transform="scale(17.241)"><g transform="translate(0,0)"><path fill-rule="evenodd" d="M8 0L8 1L9 1L9 2L8 2L8 5L9 5L9 4L11 4L11 5L10 5L10 10L9 10L9 8L8 8L8 10L6 10L6 11L5 11L5 9L4 9L4 8L0 8L0 10L2 10L2 12L1 12L1 13L3 13L3 11L5 11L5 12L6 12L6 13L4 13L4 14L5 14L5 15L4 15L4 17L5 17L5 19L4 19L4 18L3 18L3 19L2 19L2 20L1 20L1 21L2 21L2 20L5 20L5 21L8 21L8 22L10 22L10 24L9 24L9 25L8 25L8 29L12 29L12 28L14 28L14 27L15 27L15 26L17 26L17 27L16 27L16 28L15 28L15 29L16 29L16 28L17 28L17 27L19 27L19 26L18 26L18 24L17 24L17 21L19 21L19 19L18 19L18 17L20 17L20 18L21 18L21 19L22 19L22 20L20 20L20 22L19 22L19 23L20 23L20 25L21 25L21 26L20 26L20 29L22 29L22 27L21 27L21 26L22 26L22 25L23 25L23 29L25 29L25 28L26 28L26 27L27 27L27 29L28 29L28 27L29 27L29 23L28 23L28 22L29 22L29 21L27 21L27 18L28 18L28 15L29 15L29 13L27 13L27 12L26 12L26 11L28 11L28 12L29 12L29 11L28 11L28 10L29 10L29 8L28 8L28 10L26 10L26 11L25 11L25 13L27 13L27 14L25 14L25 15L27 15L27 17L26 17L26 18L24 18L24 17L25 17L25 16L24 16L24 15L23 15L23 13L22 13L22 14L20 14L20 13L21 13L21 12L20 12L20 13L19 13L19 11L18 11L18 10L21 10L21 11L22 11L22 12L24 12L24 11L22 11L22 10L25 10L25 9L27 9L27 8L24 8L24 9L22 9L22 8L19 8L19 6L20 6L20 7L21 7L21 6L20 6L20 3L21 3L21 2L20 2L20 3L19 3L19 2L18 2L18 3L17 3L17 4L15 4L15 3L16 3L16 2L17 2L17 0L16 0L16 2L15 2L15 0L14 0L14 1L13 1L13 0L12 0L12 1L11 1L11 0L10 0L10 1L9 1L9 0ZM19 0L19 1L21 1L21 0ZM11 2L11 4L12 4L12 3L13 3L13 2ZM14 2L14 3L15 3L15 2ZM18 3L18 4L17 4L17 5L14 5L14 6L13 6L13 5L12 5L12 6L11 6L11 8L12 8L12 6L13 6L13 11L11 11L11 13L9 13L9 12L8 12L8 11L9 11L9 10L8 10L8 11L6 11L6 12L7 12L7 13L6 13L6 14L7 14L7 15L6 15L6 16L5 16L5 17L6 17L6 18L9 18L9 19L5 19L5 20L10 20L10 18L9 18L9 15L10 15L10 14L11 14L11 13L12 13L12 12L13 12L13 11L15 11L15 12L16 12L16 13L17 13L17 14L19 14L19 13L17 13L17 12L18 12L18 11L16 11L16 8L15 8L15 7L16 7L16 6L17 6L17 7L18 7L18 6L19 6L19 5L18 5L18 4L19 4L19 3ZM8 6L8 7L9 7L9 6ZM14 6L14 7L15 7L15 6ZM6 8L6 9L7 9L7 8ZM14 8L14 9L15 9L15 8ZM2 9L2 10L3 10L3 9ZM11 9L11 10L12 10L12 9ZM17 9L17 10L18 10L18 9ZM21 9L21 10L22 10L22 9ZM13 13L13 14L12 14L12 16L10 16L10 17L11 17L11 19L12 19L12 20L11 20L11 23L14 23L14 22L15 22L15 23L16 23L16 20L17 20L17 19L15 19L15 21L13 21L13 18L15 18L15 17L16 17L16 18L17 18L17 17L18 17L18 15L17 15L17 17L16 17L16 16L15 16L15 17L14 17L14 15L16 15L16 14L15 14L15 13ZM8 14L8 15L7 15L7 16L6 16L6 17L7 17L7 16L8 16L8 15L9 15L9 14ZM0 15L0 17L1 17L1 18L0 18L0 19L1 19L1 18L2 18L2 16L3 16L3 15L2 15L2 16L1 16L1 15ZM19 15L19 16L22 16L22 19L23 19L23 20L24 20L24 18L23 18L23 15ZM12 16L12 17L13 17L13 16ZM25 19L25 20L26 20L26 19ZM21 21L21 24L24 24L24 21ZM22 22L22 23L23 23L23 22ZM26 22L26 23L25 23L25 26L24 26L24 27L25 27L25 26L26 26L26 24L28 24L28 23L27 23L27 22ZM10 24L10 26L11 26L11 28L12 28L12 26L13 26L13 27L14 27L14 26L15 26L15 24L12 24L12 26L11 26L11 24ZM16 24L16 25L17 25L17 24ZM13 25L13 26L14 26L14 25ZM27 25L27 27L28 27L28 25ZM9 27L9 28L10 28L10 27ZM0 0L0 7L7 7L7 0ZM1 1L1 6L6 6L6 1ZM2 2L2 5L5 5L5 2ZM22 0L22 7L29 7L29 0ZM23 1L23 6L28 6L28 1ZM24 2L24 5L27 5L27 2ZM0 22L0 29L7 29L7 22ZM1 23L1 28L6 28L6 23ZM2 24L2 27L5 27L5 24Z" fill="#00803c"/></g></g></svg>
