<?xml version="1.0" encoding="UTF-8"?>
<svg xmlns="http://www.w3.org/2000/svg" version="1.1" width="500" height="500" viewBox="0 0 500 500"><rect x="0" y="0" width="500" height="500" fill="#ffffff"/><g transform="scale(17.241)"><g transform="translate(0,0)"><path fill-rule="evenodd" d="M9 0L9 1L8 1L8 2L9 2L9 3L8 3L8 4L10 4L10 7L11 7L11 4L12 4L12 5L13 5L13 6L12 6L12 9L13 9L13 10L11 10L11 11L10 11L10 9L11 9L11 8L6 8L6 9L5 9L5 8L0 8L0 10L2 10L2 12L1 12L1 11L0 11L0 12L1 12L1 13L0 13L0 14L1 14L1 15L2 15L2 17L0 17L0 21L1 21L1 18L2 18L2 19L3 19L3 20L2 20L2 21L3 21L3 20L4 20L4 21L5 21L5 20L4 20L4 18L5 18L5 19L9 19L9 18L10 18L10 20L6 20L6 21L8 21L8 23L9 23L9 24L8 24L8 29L9 29L9 28L10 28L10 29L18 29L18 28L15 28L15 27L17 27L17 26L19 26L19 25L18 25L18 24L17 24L17 21L18 21L18 23L20 23L20 27L19 27L19 28L22 28L22 27L23 27L23 26L24 26L24 27L26 27L26 26L24 26L24 25L27 25L27 28L24 28L24 29L27 29L27 28L28 28L28 26L29 26L29 24L28 24L28 25L27 25L27 24L25 24L25 23L27 23L27 22L29 22L29 20L28 20L28 19L27 19L27 16L28 16L28 15L27 15L27 12L28 12L28 11L27 11L27 12L25 12L25 9L26 9L26 8L25 8L25 9L24 9L24 8L23 8L23 9L22 9L22 8L20 8L20 9L18 9L18 8L19 8L19 5L20 5L20 3L21 3L21 0L19 0L19 1L18 1L18 3L15 3L15 2L17 2L17 0L16 0L16 1L15 1L15 2L14 2L14 1L11 1L11 2L10 2L10 0ZM19 1L19 2L20 2L20 1ZM12 2L12 4L13 4L13 5L14 5L14 6L13 6L13 8L15 8L15 9L14 9L14 10L13 10L13 11L12 11L12 13L11 13L11 12L10 12L10 13L11 13L11 18L13 18L13 19L12 19L12 20L15 20L15 21L14 21L14 22L12 22L12 21L11 21L11 23L13 23L13 24L11 24L11 25L12 25L12 26L11 26L11 27L12 27L12 28L14 28L14 27L12 27L12 26L13 26L13 24L14 24L14 23L15 23L15 25L14 25L14 26L17 26L17 24L16 24L16 23L15 23L15 22L16 22L16 21L17 21L17 20L18 20L18 21L19 21L19 20L21 20L21 19L22 19L22 18L21 18L21 17L20 17L20 16L21 16L21 14L22 14L22 17L23 17L23 18L24 18L24 19L25 19L25 21L26 21L26 20L27 20L27 19L25 19L25 18L24 18L24 17L26 17L26 16L27 16L27 15L26 15L26 13L25 13L25 12L24 12L24 9L23 9L23 12L22 12L22 13L20 13L20 12L21 12L21 11L22 11L22 10L21 10L21 9L20 9L20 10L18 10L18 11L16 11L16 12L15 12L15 13L17 13L17 14L18 14L18 15L16 15L16 16L15 16L15 14L14 14L14 13L13 13L13 12L14 12L14 11L15 11L15 10L16 10L16 9L17 9L17 8L18 8L18 6L17 6L17 5L19 5L19 3L18 3L18 4L17 4L17 5L16 5L16 4L15 4L15 5L14 5L14 4L13 4L13 3L14 3L14 2ZM10 3L10 4L11 4L11 3ZM8 5L8 7L9 7L9 5ZM15 5L15 6L14 6L14 7L15 7L15 6L16 6L16 8L17 8L17 6L16 6L16 5ZM20 6L20 7L21 7L21 6ZM27 8L27 9L28 9L28 10L29 10L29 9L28 9L28 8ZM3 9L3 10L4 10L4 9ZM6 9L6 10L8 10L8 11L4 11L4 14L3 14L3 12L2 12L2 14L3 14L3 15L4 15L4 14L5 14L5 15L6 15L6 16L7 16L7 17L6 17L6 18L9 18L9 17L10 17L10 16L9 16L9 17L8 17L8 14L9 14L9 13L8 13L8 12L9 12L9 10L8 10L8 9ZM6 12L6 13L5 13L5 14L6 14L6 15L7 15L7 14L6 14L6 13L7 13L7 12ZM17 12L17 13L18 13L18 14L20 14L20 13L18 13L18 12ZM23 12L23 13L22 13L22 14L23 14L23 13L24 13L24 14L25 14L25 13L24 13L24 12ZM12 13L12 14L13 14L13 13ZM28 13L28 14L29 14L29 13ZM12 15L12 17L14 17L14 19L15 19L15 20L17 20L17 19L18 19L18 20L19 20L19 18L20 18L20 17L19 17L19 18L17 18L17 17L18 17L18 16L16 16L16 18L15 18L15 16L13 16L13 15ZM23 15L23 16L24 16L24 15ZM4 16L4 17L5 17L5 16ZM2 17L2 18L3 18L3 17ZM28 17L28 18L29 18L29 17ZM9 21L9 22L10 22L10 21ZM21 21L21 24L24 24L24 21ZM22 22L22 23L23 23L23 22ZM9 24L9 25L10 25L10 24ZM22 25L22 26L21 26L21 27L22 27L22 26L23 26L23 25ZM0 0L0 7L7 7L7 0ZM1 1L1 6L6 6L6 1ZM2 2L2 5L5 5L5 2ZM22 0L22 7L29 7L29 0ZM23 1L23 6L28 6L28 1ZM24 2L24 5L27 5L27 2ZM0 22L0 29L7 29L7 22ZM1 23L1 28L6 28L6 23ZM2 24L2 27L5 27L5 24Z" fill="#00803c"/></g></g></svg>
