<?xml version="1.0" encoding="UTF-8"?>
<svg xmlns="http://www.w3.org/2000/svg" version="1.1" width="500" height="500" viewBox="0 0 500 500"><rect x="0" y="0" width="500" height="500" fill="#ffffff"/><g transform="scale(20)"><g transform="translate(0,0)"><path fill-rule="evenodd" d="M8 0L8 1L9 1L9 2L8 2L8 5L9 5L9 4L11 4L11 5L10 5L10 10L9 10L9 8L8 8L8 10L9 10L9 11L8 11L8 12L9 12L9 13L7 13L7 12L6 12L6 11L7 11L7 10L6 10L6 9L7 9L7 8L6 8L6 9L4 9L4 8L0 8L0 9L3 9L3 10L4 10L4 11L5 11L5 12L3 12L3 13L2 13L2 12L1 12L1 11L2 11L2 10L1 10L1 11L0 11L0 12L1 12L1 15L0 15L0 16L1 16L1 15L2 15L2 16L3 16L3 15L4 15L4 17L5 17L5 15L7 15L7 14L10 14L10 13L11 13L11 15L10 15L10 16L6 16L6 17L8 17L8 18L10 18L10 19L11 19L11 20L10 20L10 21L11 21L11 20L12 20L12 19L11 19L11 16L12 16L12 17L13 17L13 16L12 16L12 14L13 14L13 15L14 15L14 18L13 18L13 21L15 21L15 22L14 22L14 23L11 23L11 22L9 22L9 21L8 21L8 25L10 25L10 24L11 24L11 25L12 25L12 24L15 24L15 25L16 25L16 24L15 24L15 23L17 23L17 21L18 21L18 23L19 23L19 22L20 22L20 24L19 24L19 25L25 25L25 24L23 24L23 23L24 23L24 22L25 22L25 21L22 21L22 22L21 22L21 19L24 19L24 20L25 20L25 15L24 15L24 14L25 14L25 12L23 12L23 11L21 11L21 10L20 10L20 11L19 11L19 10L18 10L18 14L16 14L16 13L17 13L17 10L16 10L16 11L15 11L15 12L14 12L14 14L13 14L13 12L12 12L12 13L11 13L11 11L14 11L14 8L13 8L13 6L12 6L12 5L13 5L13 4L14 4L14 2L15 2L15 3L16 3L16 2L15 2L15 0L12 0L12 1L11 1L11 0L10 0L10 1L9 1L9 0ZM13 1L13 2L11 2L11 4L12 4L12 3L13 3L13 2L14 2L14 1ZM15 4L15 5L16 5L16 8L17 8L17 9L18 9L18 8L17 8L17 5L16 5L16 4ZM8 6L8 7L9 7L9 6ZM11 6L11 8L12 8L12 6ZM14 6L14 7L15 7L15 6ZM20 8L20 9L23 9L23 10L24 10L24 9L25 9L25 8L24 8L24 9L23 9L23 8ZM11 9L11 10L12 10L12 9ZM20 11L20 12L21 12L21 15L19 15L19 14L20 14L20 13L19 13L19 14L18 14L18 15L19 15L19 16L21 16L21 15L22 15L22 16L24 16L24 15L22 15L22 14L24 14L24 13L22 13L22 12L21 12L21 11ZM5 12L5 13L4 13L4 14L5 14L5 13L6 13L6 14L7 14L7 13L6 13L6 12ZM14 14L14 15L15 15L15 17L16 17L16 16L17 16L17 15L16 15L16 14ZM17 17L17 20L20 20L20 17ZM21 17L21 18L24 18L24 17ZM15 18L15 21L16 21L16 18ZM18 18L18 19L19 19L19 18ZM9 23L9 24L10 24L10 23ZM21 23L21 24L22 24L22 23ZM17 24L17 25L18 25L18 24ZM0 0L0 7L7 7L7 0ZM1 1L1 6L6 6L6 1ZM2 2L2 5L5 5L5 2ZM18 0L18 7L25 7L25 0ZM19 1L19 6L24 6L24 1ZM20 2L20 5L23 5L23 2ZM0 18L0 25L7 25L7 18ZM1 19L1 24L6 24L6 19ZM2 20L2 23L5 23L5 20Z" fill="#00803c"/></g></g></svg>
