<?xml version="1.0" encoding="UTF-8"?>
<svg xmlns="http://www.w3.org/2000/svg" version="1.1" width="500" height="500" viewBox="0 0 500 500"><rect x="0" y="0" width="500" height="500" fill="#ffffff"/><g transform="scale(17.241)"><g transform="translate(0,0)"><path fill-rule="evenodd" d="M9 0L9 1L8 1L8 2L9 2L9 3L8 3L8 4L10 4L10 7L11 7L11 4L12 4L12 5L13 5L13 6L12 6L12 9L13 9L13 10L11 10L11 11L10 11L10 9L11 9L11 8L6 8L6 9L8 9L8 11L9 11L9 13L8 13L8 12L5 12L5 14L4 14L4 13L3 13L3 12L2 12L2 11L3 11L3 9L4 9L4 10L5 10L5 8L0 8L0 9L2 9L2 11L1 11L1 10L0 10L0 13L1 13L1 14L2 14L2 13L3 13L3 15L2 15L2 16L3 16L3 15L4 15L4 16L5 16L5 17L7 17L7 18L6 18L6 19L7 19L7 20L5 20L5 21L8 21L8 23L9 23L9 24L8 24L8 29L11 29L11 26L12 26L12 27L13 27L13 26L12 26L12 25L16 25L16 26L15 26L15 27L14 27L14 28L13 28L13 29L15 29L15 27L16 27L16 28L17 28L17 29L19 29L19 28L17 28L17 27L18 27L18 26L19 26L19 27L20 27L20 28L22 28L22 27L23 27L23 28L26 28L26 29L27 29L27 28L28 28L28 26L29 26L29 24L28 24L28 25L27 25L27 24L26 24L26 23L27 23L27 22L29 22L29 20L28 20L28 19L27 19L27 16L28 16L28 15L27 15L27 12L28 12L28 11L27 11L27 12L25 12L25 9L26 9L26 8L25 8L25 9L24 9L24 8L23 8L23 9L22 9L22 8L21 8L21 6L20 6L20 9L18 9L18 8L15 8L15 6L16 6L16 7L17 7L17 6L16 6L16 5L18 5L18 7L19 7L19 5L21 5L21 4L20 4L20 3L21 3L21 0L19 0L19 1L17 1L17 0L16 0L16 1L14 1L14 0L13 0L13 1L11 1L11 2L10 2L10 0ZM13 1L13 2L12 2L12 4L13 4L13 5L14 5L14 6L13 6L13 8L14 8L14 10L16 10L16 9L15 9L15 8L14 8L14 6L15 6L15 5L16 5L16 4L17 4L17 3L18 3L18 5L19 5L19 2L20 2L20 1L19 1L19 2L16 2L16 4L15 4L15 5L14 5L14 4L13 4L13 3L14 3L14 1ZM10 3L10 4L11 4L11 3ZM8 5L8 7L9 7L9 5ZM27 8L27 9L28 9L28 10L29 10L29 9L28 9L28 8ZM17 9L17 12L16 12L16 11L15 11L15 12L16 12L16 13L13 13L13 12L14 12L14 11L12 11L12 13L11 13L11 12L10 12L10 13L11 13L11 14L8 14L8 13L6 13L6 14L8 14L8 16L7 16L7 15L6 15L6 16L7 16L7 17L8 17L8 19L9 19L9 20L8 20L8 21L10 21L10 22L9 22L9 23L11 23L11 24L10 24L10 25L9 25L9 26L10 26L10 25L12 25L12 24L14 24L14 22L16 22L16 24L18 24L18 25L17 25L17 26L18 26L18 25L19 25L19 26L20 26L20 24L18 24L18 23L17 23L17 22L20 22L20 21L19 21L19 20L20 20L20 19L21 19L21 18L22 18L22 19L24 19L24 20L25 20L25 21L26 21L26 20L27 20L27 19L24 19L24 18L22 18L22 17L26 17L26 16L27 16L27 15L26 15L26 13L25 13L25 12L23 12L23 10L22 10L22 9L21 9L21 11L20 11L20 10L19 10L19 11L18 11L18 9ZM6 10L6 11L7 11L7 10ZM19 11L19 12L17 12L17 13L16 13L16 14L15 14L15 15L14 15L14 14L13 14L13 13L12 13L12 14L13 14L13 15L12 15L12 17L14 17L14 18L10 18L10 16L9 16L9 18L10 18L10 21L12 21L12 22L13 22L13 21L16 21L16 22L17 22L17 21L18 21L18 20L12 20L12 19L14 19L14 18L15 18L15 19L16 19L16 18L17 18L17 19L18 19L18 18L21 18L21 17L20 17L20 16L19 16L19 15L18 15L18 14L20 14L20 15L21 15L21 14L24 14L24 15L23 15L23 16L24 16L24 15L25 15L25 13L21 13L21 12L22 12L22 11L21 11L21 12L20 12L20 11ZM1 12L1 13L2 13L2 12ZM19 12L19 13L20 13L20 12ZM28 13L28 14L29 14L29 13ZM13 15L13 16L14 16L14 15ZM15 15L15 18L16 18L16 17L17 17L17 16L18 16L18 17L19 17L19 16L18 16L18 15L17 15L17 16L16 16L16 15ZM0 16L0 21L1 21L1 16ZM2 17L2 20L3 20L3 21L4 21L4 19L5 19L5 18L4 18L4 17ZM28 17L28 18L29 18L29 17ZM3 18L3 19L4 19L4 18ZM21 21L21 24L24 24L24 21ZM22 22L22 23L23 23L23 22ZM25 24L25 25L21 25L21 26L25 26L25 27L26 27L26 28L27 28L27 27L26 27L26 26L27 26L27 25L26 25L26 24ZM0 0L0 7L7 7L7 0ZM1 1L1 6L6 6L6 1ZM2 2L2 5L5 5L5 2ZM22 0L22 7L29 7L29 0ZM23 1L23 6L28 6L28 1ZM24 2L24 5L27 5L27 2ZM0 22L0 29L7 29L7 22ZM1 23L1 28L6 28L6 23ZM2 24L2 27L5 27L5 24Z" fill="#00803c"/></g></g></svg>
