<?xml version="1.0" encoding="UTF-8"?>
<svg xmlns="http://www.w3.org/2000/svg" version="1.1" width="500" height="500" viewBox="0 0 500 500"><rect x="0" y="0" width="500" height="500" fill="#ffffff"/><g transform="scale(17.241)"><g transform="translate(0,0)"><path fill-rule="evenodd" d="M10 0L10 1L8 1L8 3L9 3L9 4L8 4L8 8L6 8L6 9L8 9L8 8L9 8L9 5L10 5L10 8L11 8L11 11L9 11L9 10L10 10L10 9L9 9L9 10L8 10L8 12L6 12L6 11L7 11L7 10L3 10L3 9L4 9L4 8L3 8L3 9L2 9L2 8L0 8L0 10L1 10L1 11L0 11L0 14L1 14L1 12L2 12L2 10L3 10L3 11L5 11L5 13L4 13L4 12L3 12L3 13L2 13L2 14L3 14L3 13L4 13L4 15L3 15L3 16L4 16L4 19L3 19L3 17L2 17L2 15L0 15L0 16L1 16L1 18L0 18L0 19L1 19L1 18L2 18L2 21L8 21L8 23L9 23L9 20L10 20L10 19L12 19L12 21L11 21L11 22L10 22L10 24L9 24L9 25L8 25L8 26L9 26L9 25L10 25L10 26L11 26L11 27L8 27L8 29L9 29L9 28L12 28L12 29L13 29L13 28L14 28L14 27L15 27L15 26L14 26L14 24L16 24L16 25L17 25L17 26L16 26L16 28L15 28L15 29L16 29L16 28L17 28L17 29L18 29L18 27L19 27L19 28L20 28L20 29L21 29L21 26L20 26L20 25L22 25L22 26L23 26L23 25L24 25L24 27L27 27L27 29L28 29L28 27L29 27L29 26L28 26L28 24L27 24L27 23L28 23L28 22L29 22L29 21L27 21L27 20L29 20L29 17L28 17L28 15L29 15L29 14L27 14L27 13L29 13L29 12L28 12L28 10L29 10L29 9L28 9L28 8L26 8L26 9L25 9L25 8L22 8L22 9L21 9L21 8L20 8L20 7L21 7L21 6L20 6L20 5L19 5L19 4L15 4L15 3L16 3L16 0L15 0L15 1L14 1L14 4L13 4L13 3L12 3L12 7L11 7L11 4L10 4L10 3L9 3L9 2L11 2L11 0ZM18 0L18 1L17 1L17 3L18 3L18 1L20 1L20 2L21 2L21 1L20 1L20 0ZM20 3L20 4L21 4L21 3ZM14 5L14 6L13 6L13 7L12 7L12 8L15 8L15 7L16 7L16 8L17 8L17 11L16 11L16 9L14 9L14 10L15 10L15 11L14 11L14 13L13 13L13 12L12 12L12 16L11 16L11 13L10 13L10 12L9 12L9 13L10 13L10 14L8 14L8 13L5 13L5 15L4 15L4 16L5 16L5 15L6 15L6 16L8 16L8 15L10 15L10 16L9 16L9 18L8 18L8 17L6 17L6 18L7 18L7 19L5 19L5 20L7 20L7 19L8 19L8 20L9 20L9 19L10 19L10 18L12 18L12 16L13 16L13 17L14 17L14 18L13 18L13 20L14 20L14 21L12 21L12 22L11 22L11 26L12 26L12 27L13 27L13 26L12 26L12 25L13 25L13 24L12 24L12 22L13 22L13 23L16 23L16 24L18 24L18 25L20 25L20 20L21 20L21 19L22 19L22 20L23 20L23 19L24 19L24 20L25 20L25 24L26 24L26 25L25 25L25 26L27 26L27 27L28 27L28 26L27 26L27 24L26 24L26 23L27 23L27 22L26 22L26 20L27 20L27 18L28 18L28 17L27 17L27 15L26 15L26 13L27 13L27 12L26 12L26 13L25 13L25 12L24 12L24 11L23 11L23 10L25 10L25 9L23 9L23 10L22 10L22 12L23 12L23 13L22 13L22 15L21 15L21 14L19 14L19 12L21 12L21 10L20 10L20 8L19 8L19 7L20 7L20 6L19 6L19 7L18 7L18 6L17 6L17 5L16 5L16 6L15 6L15 5ZM14 6L14 7L15 7L15 6ZM16 6L16 7L17 7L17 8L18 8L18 7L17 7L17 6ZM26 9L26 10L28 10L28 9ZM18 10L18 12L16 12L16 13L18 13L18 12L19 12L19 11L20 11L20 10ZM14 13L14 14L15 14L15 13ZM6 14L6 15L8 15L8 14ZM16 14L16 16L15 16L15 17L16 17L16 16L17 16L17 17L18 17L18 18L19 18L19 17L20 17L20 16L21 16L21 17L22 17L22 19L23 19L23 18L24 18L24 16L23 16L23 15L24 15L24 14L23 14L23 15L22 15L22 16L21 16L21 15L19 15L19 17L18 17L18 15L17 15L17 14ZM13 15L13 16L14 16L14 15ZM25 15L25 17L26 17L26 15ZM22 16L22 17L23 17L23 16ZM14 18L14 19L15 19L15 21L16 21L16 23L17 23L17 22L18 22L18 21L17 21L17 20L18 20L18 19L17 19L17 18L16 18L16 19L15 19L15 18ZM25 18L25 19L26 19L26 18ZM16 19L16 20L17 20L17 19ZM19 19L19 20L20 20L20 19ZM0 20L0 21L1 21L1 20ZM21 21L21 24L24 24L24 21ZM22 22L22 23L23 23L23 22ZM18 23L18 24L19 24L19 23ZM17 26L17 27L18 27L18 26ZM19 26L19 27L20 27L20 26ZM22 27L22 28L23 28L23 29L26 29L26 28L23 28L23 27ZM0 0L0 7L7 7L7 0ZM1 1L1 6L6 6L6 1ZM2 2L2 5L5 5L5 2ZM22 0L22 7L29 7L29 0ZM23 1L23 6L28 6L28 1ZM24 2L24 5L27 5L27 2ZM0 22L0 29L7 29L7 22ZM1 23L1 28L6 28L6 23ZM2 24L2 27L5 27L5 24Z" fill="#00803c"/></g></g></svg>
