<?xml version="1.0" encoding="UTF-8"?>
<svg xmlns="http://www.w3.org/2000/svg" version="1.1" width="500" height="500" viewBox="0 0 500 500"><rect x="0" y="0" width="500" height="500" fill="#ffffff"/><g transform="scale(17.241)"><g transform="translate(0,0)"><path fill-rule="evenodd" d="M9 0L9 1L11 1L11 2L9 2L9 3L8 3L8 5L9 5L9 6L8 6L8 7L9 7L9 9L8 9L8 8L5 8L5 10L4 10L4 9L3 9L3 10L1 10L1 11L2 11L2 12L4 12L4 13L5 13L5 14L6 14L6 15L3 15L3 19L4 19L4 20L2 20L2 21L4 21L4 20L6 20L6 21L8 21L8 24L10 24L10 25L9 25L9 27L8 27L8 29L10 29L10 28L11 28L11 29L12 29L12 27L13 27L13 26L11 26L11 25L14 25L14 23L15 23L15 24L16 24L16 25L15 25L15 29L18 29L18 28L17 28L17 26L19 26L19 25L20 25L20 27L19 27L19 28L20 28L20 27L21 27L21 25L23 25L23 26L22 26L22 28L23 28L23 26L24 26L24 27L26 27L26 28L24 28L24 29L27 29L27 27L28 27L28 28L29 28L29 27L28 27L28 26L29 26L29 24L28 24L28 23L27 23L27 22L26 22L26 21L29 21L29 20L26 20L26 21L25 21L25 19L22 19L22 20L19 20L19 19L21 19L21 18L20 18L20 17L22 17L22 18L23 18L23 17L22 17L22 16L24 16L24 15L22 15L22 14L23 14L23 10L22 10L22 12L21 12L21 15L20 15L20 17L19 17L19 18L18 18L18 20L17 20L17 21L18 21L18 23L20 23L20 24L19 24L19 25L17 25L17 22L16 22L16 18L17 18L17 17L18 17L18 16L17 16L17 15L18 15L18 14L20 14L20 12L19 12L19 13L18 13L18 14L17 14L17 11L18 11L18 10L21 10L21 8L20 8L20 9L18 9L18 8L19 8L19 5L20 5L20 4L21 4L21 1L20 1L20 2L19 2L19 1L18 1L18 0L17 0L17 1L18 1L18 3L17 3L17 2L15 2L15 0L13 0L13 1L12 1L12 0ZM13 1L13 2L12 2L12 4L11 4L11 7L10 7L10 6L9 6L9 7L10 7L10 8L11 8L11 10L10 10L10 9L9 9L9 10L7 10L7 9L6 9L6 10L7 10L7 11L6 11L6 12L5 12L5 13L6 13L6 14L7 14L7 13L6 13L6 12L8 12L8 13L9 13L9 12L10 12L10 11L11 11L11 10L13 10L13 11L12 11L12 12L11 12L11 14L10 14L10 15L9 15L9 14L8 14L8 15L6 15L6 16L10 16L10 15L11 15L11 17L10 17L10 18L9 18L9 17L5 17L5 16L4 16L4 19L5 19L5 18L7 18L7 19L6 19L6 20L9 20L9 21L10 21L10 20L11 20L11 19L12 19L12 21L11 21L11 23L10 23L10 22L9 22L9 23L10 23L10 24L12 24L12 23L13 23L13 22L12 22L12 21L14 21L14 22L15 22L15 20L14 20L14 19L12 19L12 18L15 18L15 17L14 17L14 16L13 16L13 17L12 17L12 15L13 15L13 14L12 14L12 13L13 13L13 12L14 12L14 11L15 11L15 12L16 12L16 11L15 11L15 10L14 10L14 8L16 8L16 10L17 10L17 8L18 8L18 6L17 6L17 7L16 7L16 4L17 4L17 5L19 5L19 3L18 3L18 4L17 4L17 3L15 3L15 4L14 4L14 1ZM9 3L9 5L10 5L10 3ZM12 4L12 5L13 5L13 6L12 6L12 9L13 9L13 8L14 8L14 7L15 7L15 5L14 5L14 4ZM13 6L13 7L14 7L14 6ZM20 6L20 7L21 7L21 6ZM0 8L0 9L2 9L2 8ZM24 8L24 12L25 12L25 9L26 9L26 10L28 10L28 9L26 9L26 8ZM3 10L3 11L4 11L4 10ZM9 10L9 11L10 11L10 10ZM0 12L0 13L1 13L1 12ZM28 12L28 13L26 13L26 17L24 17L24 18L28 18L28 19L29 19L29 17L27 17L27 14L29 14L29 12ZM2 13L2 14L1 14L1 15L0 15L0 21L1 21L1 19L2 19L2 18L1 18L1 15L2 15L2 14L3 14L3 13ZM24 13L24 14L25 14L25 13ZM16 14L16 15L17 15L17 14ZM21 15L21 16L22 16L22 15ZM28 15L28 16L29 16L29 15ZM8 18L8 19L9 19L9 20L10 20L10 19L11 19L11 18L10 18L10 19L9 19L9 18ZM18 20L18 21L19 21L19 20ZM21 21L21 24L24 24L24 21ZM22 22L22 23L23 23L23 22ZM25 23L25 25L24 25L24 26L26 26L26 27L27 27L27 26L28 26L28 24L27 24L27 23ZM16 25L16 26L17 26L17 25ZM0 0L0 7L7 7L7 0ZM1 1L1 6L6 6L6 1ZM2 2L2 5L5 5L5 2ZM22 0L22 7L29 7L29 0ZM23 1L23 6L28 6L28 1ZM24 2L24 5L27 5L27 2ZM0 22L0 29L7 29L7 22ZM1 23L1 28L6 28L6 23ZM2 24L2 27L5 27L5 24Z" fill="#00803c"/></g></g></svg>
