<?xml version="1.0" encoding="UTF-8"?>
<svg xmlns="http://www.w3.org/2000/svg" version="1.1" width="500" height="500" viewBox="0 0 500 500"><rect x="0" y="0" width="500" height="500" fill="#ffffff"/><g transform="scale(20)"><g transform="translate(0,0)"><path fill-rule="evenodd" d="M11 0L11 1L9 1L9 2L11 2L11 1L13 1L13 2L12 2L12 4L14 4L14 3L13 3L13 2L14 2L14 0ZM16 1L16 3L15 3L15 4L16 4L16 5L17 5L17 1ZM8 3L8 5L10 5L10 4L9 4L9 3ZM11 5L11 6L10 6L10 8L9 8L9 9L8 9L8 8L5 8L5 9L2 9L2 8L0 8L0 9L1 9L1 10L5 10L5 9L8 9L8 10L10 10L10 11L7 11L7 10L6 10L6 11L5 11L5 13L4 13L4 11L3 11L3 12L2 12L2 13L3 13L3 14L2 14L2 15L4 15L4 16L2 16L2 17L7 17L7 16L5 16L5 13L8 13L8 12L9 12L9 14L6 14L6 15L10 15L10 17L12 17L12 18L9 18L9 17L8 17L8 20L10 20L10 21L9 21L9 23L8 23L8 25L9 25L9 23L10 23L10 25L11 25L11 24L12 24L12 23L13 23L13 22L11 22L11 19L12 19L12 21L13 21L13 20L14 20L14 22L15 22L15 23L14 23L14 24L13 24L13 25L15 25L15 24L16 24L16 25L17 25L17 24L18 24L18 23L16 23L16 21L17 21L17 22L19 22L19 24L21 24L21 25L22 25L22 24L21 24L21 23L20 23L20 22L19 22L19 21L21 21L21 22L22 22L22 23L23 23L23 22L24 22L24 25L25 25L25 20L24 20L24 19L25 19L25 18L24 18L24 19L23 19L23 20L21 20L21 19L22 19L22 18L23 18L23 15L24 15L24 16L25 16L25 14L24 14L24 13L25 13L25 10L24 10L24 9L22 9L22 8L20 8L20 9L19 9L19 10L18 10L18 9L12 9L12 7L13 7L13 6L14 6L14 8L17 8L17 6L16 6L16 7L15 7L15 5ZM8 6L8 7L9 7L9 6ZM11 6L11 7L12 7L12 6ZM10 8L10 10L11 10L11 11L10 11L10 14L13 14L13 15L12 15L12 17L16 17L16 15L15 15L15 12L17 12L17 13L18 13L18 14L19 14L19 15L20 15L20 16L21 16L21 18L22 18L22 15L23 15L23 13L24 13L24 11L23 11L23 10L22 10L22 12L20 12L20 11L21 11L21 10L20 10L20 11L18 11L18 10L17 10L17 11L14 11L14 13L11 13L11 12L12 12L12 11L13 11L13 10L12 10L12 9L11 9L11 8ZM0 11L0 17L1 17L1 11ZM6 11L6 12L7 12L7 11ZM17 11L17 12L18 12L18 13L19 13L19 14L20 14L20 12L18 12L18 11ZM21 14L21 15L22 15L22 14ZM17 15L17 16L18 16L18 15ZM17 17L17 20L20 20L20 17ZM12 18L12 19L14 19L14 20L15 20L15 19L16 19L16 18ZM18 18L18 19L19 19L19 18ZM23 20L23 21L22 21L22 22L23 22L23 21L24 21L24 20ZM10 22L10 23L11 23L11 22ZM0 0L0 7L7 7L7 0ZM1 1L1 6L6 6L6 1ZM2 2L2 5L5 5L5 2ZM18 0L18 7L25 7L25 0ZM19 1L19 6L24 6L24 1ZM20 2L20 5L23 5L23 2ZM0 18L0 25L7 25L7 18ZM1 19L1 24L6 24L6 19ZM2 20L2 23L5 23L5 20Z" fill="#00803c"/></g></g></svg>
